<svg width="27" height="33" viewBox="0 0 27 33" fill="none" xmlns="http://www.w3.org/2000/svg">
<path d="M19.497 0.395996H19.729C19.8096 1.32971 19.6979 2.27004 19.4009 3.15891C19.1038 4.04778 18.6277 4.86632 18.002 5.564C17.4693 6.30375 16.7565 6.89521 15.9312 7.28232C15.1059 7.66943 14.1954 7.83935 13.286 7.776C13.2196 6.86528 13.3414 5.95065 13.6439 5.08906C13.9463 4.22748 14.4229 3.43739 15.044 2.768C16.2145 1.49281 17.7856 0.655906 19.497 0.395996Z" fill="white"/>
<path d="M26.389 23.903V23.966C25.7736 25.8078 24.8741 27.542 23.723 29.106C22.706 30.506 21.46 32.388 19.236 32.388C17.314 32.388 16.036 31.152 14.067 31.118C11.983 31.084 10.837 32.152 8.93098 32.418H8.27698C6.91776 32.0783 5.72744 31.2581 4.92598 30.109C2.18388 26.8201 0.556104 22.7459 0.276978 18.473V17.04C0.285974 15.5205 0.663789 14.0259 1.37795 12.6846C2.09212 11.3434 3.12128 10.1956 4.37698 9.33996C5.74923 8.44213 7.39574 8.0608 9.02298 8.26396C9.8021 8.40363 10.565 8.62208 11.3 8.91596C12.0081 9.28576 12.7802 9.51723 13.575 9.59796C14.131 9.51798 14.6714 9.3527 15.177 9.10796C16.7756 8.34689 18.5502 8.03212 20.313 8.19696C21.3622 8.29773 22.3759 8.63003 23.2812 9.1699C24.1864 9.70977 24.9606 10.4438 25.548 11.319C24.3817 11.9658 23.4343 12.9451 22.8265 14.1323C22.2187 15.3194 21.9779 16.6606 22.135 17.985C22.2188 19.2707 22.662 20.5072 23.4141 21.5534C24.1662 22.5997 25.1969 23.4138 26.389 23.903Z" fill="white"/>
</svg>
