<svg width="49" height="46" viewBox="0 0 49 46" fill="none" xmlns="http://www.w3.org/2000/svg">
<path d="M43.7457 0.531982H39.2457V5.03198C39.2457 5.42981 39.0877 5.81134 38.8064 6.09264C38.5251 6.37395 38.1435 6.53198 37.7457 6.53198C37.3479 6.53198 36.9663 6.37395 36.685 6.09264C36.4037 5.81134 36.2457 5.42981 36.2457 5.03198V0.531982H12.2457V5.03198C12.2457 5.42981 12.0877 5.81134 11.8064 6.09264C11.5251 6.37395 11.1435 6.53198 10.7457 6.53198C10.3479 6.53198 9.96635 6.37395 9.68504 6.09264C9.40374 5.81134 9.2457 5.42981 9.2457 5.03198V0.531982H4.7457C2.4957 0.531982 0.845703 2.48198 0.845703 5.03198V10.432H48.8457V5.03198C48.8457 2.48198 46.1457 0.531982 43.7457 0.531982ZM0.845703 13.581V41.032C0.845703 43.732 2.4957 45.532 4.8957 45.532H43.8957C46.2957 45.532 48.9957 43.582 48.9957 41.032V13.581H0.845703ZM14.1947 38.781H10.5947C10.4365 38.7833 10.2794 38.7538 10.1328 38.6943C9.98616 38.6348 9.85296 38.5465 9.74107 38.4346C9.62918 38.3227 9.54088 38.1895 9.48138 38.0429C9.42189 37.8963 9.39241 37.7392 9.3947 37.581V33.832C9.39241 33.6738 9.42189 33.5167 9.48138 33.3701C9.54088 33.2234 9.62918 33.0902 9.74107 32.9784C9.85296 32.8665 9.98616 32.7782 10.1328 32.7187C10.2794 32.6592 10.4365 32.6297 10.5947 32.632H14.3457C14.5039 32.6297 14.661 32.6592 14.8076 32.7187C14.9542 32.7782 15.0874 32.8665 15.1993 32.9784C15.3112 33.0902 15.3995 33.2234 15.459 33.3701C15.5185 33.5167 15.548 33.6738 15.5457 33.832V37.582C15.517 37.9168 15.361 38.2278 15.1098 38.451C14.8587 38.6742 14.5315 38.7927 14.1957 38.782L14.1947 38.781ZM14.1947 25.281H10.5947C10.4365 25.2833 10.2794 25.2538 10.1328 25.1943C9.98616 25.1348 9.85296 25.0465 9.74107 24.9346C9.62918 24.8227 9.54088 24.6895 9.48138 24.5429C9.42189 24.3963 9.39241 24.2392 9.3947 24.081V20.332C9.39241 20.1738 9.42189 20.0167 9.48138 19.8701C9.54088 19.7234 9.62918 19.5902 9.74107 19.4784C9.85296 19.3665 9.98616 19.2782 10.1328 19.2187C10.2794 19.1592 10.4365 19.1297 10.5947 19.132H14.3457C14.5039 19.1297 14.661 19.1592 14.8076 19.2187C14.9542 19.2782 15.0874 19.3665 15.1993 19.4784C15.3112 19.5902 15.3995 19.7234 15.459 19.8701C15.5185 20.0167 15.548 20.1738 15.5457 20.332V24.082C15.517 24.4168 15.361 24.7278 15.1098 24.951C14.8587 25.1742 14.5315 25.2927 14.1957 25.282L14.1947 25.281ZM26.1947 38.781H22.4457C22.2875 38.7833 22.1304 38.7538 21.9838 38.6943C21.8372 38.6348 21.704 38.5465 21.5921 38.4346C21.4802 38.3227 21.3919 38.1895 21.3324 38.0429C21.2729 37.8963 21.2434 37.7392 21.2457 37.581V33.832C21.2434 33.6738 21.2729 33.5167 21.3324 33.3701C21.3919 33.2234 21.4802 33.0902 21.5921 32.9784C21.704 32.8665 21.8372 32.7782 21.9838 32.7187C22.1304 32.6592 22.2875 32.6297 22.4457 32.632H26.1957C26.3539 32.6297 26.511 32.6592 26.6576 32.7187C26.8042 32.7782 26.9374 32.8665 27.0493 32.9784C27.1612 33.0902 27.2495 33.2234 27.309 33.3701C27.3685 33.5167 27.398 33.6738 27.3957 33.832V37.582C27.4108 37.7434 27.39 37.9061 27.3348 38.0585C27.2797 38.2109 27.1915 38.3492 27.0767 38.4636C26.9618 38.578 26.8231 38.6656 26.6705 38.7201C26.5178 38.7746 26.355 38.7947 26.1937 38.779L26.1947 38.781ZM26.1947 25.281H22.4457C22.2875 25.2833 22.1304 25.2538 21.9838 25.1943C21.8372 25.1348 21.704 25.0465 21.5921 24.9346C21.4802 24.8227 21.3919 24.6895 21.3324 24.5429C21.2729 24.3963 21.2434 24.2392 21.2457 24.081V20.332C21.2434 20.1738 21.2729 20.0167 21.3324 19.8701C21.3919 19.7234 21.4802 19.5902 21.5921 19.4784C21.704 19.3665 21.8372 19.2782 21.9838 19.2187C22.1304 19.1592 22.2875 19.1297 22.4457 19.132H26.1957C26.3539 19.1297 26.511 19.1592 26.6576 19.2187C26.8042 19.2782 26.9374 19.3665 27.0493 19.4784C27.1612 19.5902 27.2495 19.7234 27.309 19.8701C27.3685 20.0167 27.398 20.1738 27.3957 20.332V24.082C27.4109 24.2434 27.3902 24.4063 27.3352 24.5588C27.2801 24.7113 27.1919 24.8498 27.0771 24.9643C26.9622 25.0788 26.8234 25.1665 26.6707 25.221C26.518 25.2756 26.3551 25.2957 26.1937 25.28L26.1947 25.281ZM38.1947 38.781H34.4457C34.2875 38.7833 34.1304 38.7538 33.9838 38.6943C33.8372 38.6348 33.704 38.5465 33.5921 38.4346C33.4802 38.3227 33.3919 38.1895 33.3324 38.0429C33.2729 37.8963 33.2434 37.7392 33.2457 37.581V33.832C33.2434 33.6738 33.2729 33.5167 33.3324 33.3701C33.3919 33.2234 33.4802 33.0902 33.5921 32.9784C33.704 32.8665 33.8372 32.7782 33.9838 32.7187C34.1304 32.6592 34.2875 32.6297 34.4457 32.632H38.1957C38.3539 32.6297 38.511 32.6592 38.6576 32.7187C38.8042 32.7782 38.9374 32.8665 39.0493 32.9784C39.1612 33.0902 39.2495 33.2234 39.309 33.3701C39.3685 33.5167 39.398 33.6738 39.3957 33.832V37.582C39.4108 37.7435 39.39 37.9063 39.3348 38.0588C39.2796 38.2112 39.1913 38.3496 39.0763 38.464C38.9614 38.5784 38.8225 38.666 38.6698 38.7204C38.517 38.7749 38.3541 38.7949 38.1927 38.779L38.1947 38.781ZM38.1947 25.281H34.4457C34.2875 25.2833 34.1304 25.2538 33.9838 25.1943C33.8372 25.1348 33.704 25.0465 33.5921 24.9346C33.4802 24.8227 33.3919 24.6895 33.3324 24.5429C33.2729 24.3963 33.2434 24.2392 33.2457 24.081V20.332C33.2434 20.1738 33.2729 20.0167 33.3324 19.8701C33.3919 19.7234 33.4802 19.5902 33.5921 19.4784C33.704 19.3665 33.8372 19.2782 33.9838 19.2187C34.1304 19.1592 34.2875 19.1297 34.4457 19.132H38.1957C38.3539 19.1297 38.511 19.1592 38.6576 19.2187C38.8042 19.2782 38.9374 19.3665 39.0493 19.4784C39.1612 19.5902 39.2495 19.7234 39.309 19.8701C39.3685 20.0167 39.398 20.1738 39.3957 20.332V24.082C39.4109 24.2435 39.3902 24.4065 39.3351 24.5591C39.28 24.7117 39.1917 24.8502 39.0768 24.9647C38.9618 25.0792 38.8229 25.1669 38.67 25.2214C38.5172 25.2759 38.3542 25.2959 38.1927 25.28L38.1947 25.281Z" fill="#3D3D3D"/>
</svg>
