<svg width="16" height="17" viewBox="0 0 16 17" fill="none" xmlns="http://www.w3.org/2000/svg">
<path fill-rule="evenodd" clip-rule="evenodd" d="M8.662 1.31212L9.628 2.03512C9.87913 2.22798 10.1836 2.33868 10.5 2.35212L11.7 2.41912C12.0468 2.43522 12.3787 2.56481 12.6446 2.78794C12.9106 3.01108 13.0959 3.31541 13.172 3.65412L13.447 4.82912C13.5159 5.13708 13.6779 5.41638 13.911 5.62912L14.791 6.45512C15.0465 6.69039 15.2176 7.00312 15.278 7.34517C15.3383 7.68722 15.2846 8.03962 15.125 8.34812L14.581 9.42512C14.4346 9.70596 14.3783 10.0251 14.42 10.3391L14.563 11.5391C14.6073 11.8835 14.5373 12.2328 14.3636 12.5335C14.19 12.8341 13.9224 13.0694 13.602 13.2031L12.493 13.6781C12.1997 13.7999 11.9514 14.0095 11.782 14.2781L11.121 15.2881C10.9336 15.5804 10.6553 15.8031 10.329 15.9218C10.0027 16.0405 9.64643 16.0487 9.315 15.9451L8.165 15.5941C7.86304 15.4986 7.53895 15.4986 7.237 15.5941L6.082 15.9431C5.75057 16.0467 5.39429 16.0385 5.06798 15.9198C4.74167 15.8011 4.4634 15.5784 4.276 15.2861L3.615 14.2761C3.44557 14.0076 3.19722 13.798 2.904 13.6761L1.794 13.2051C1.47359 13.0714 1.20599 12.8361 1.03236 12.5355C0.858729 12.2348 0.788684 11.8855 0.832999 11.5411L0.975999 10.3411C1.01766 10.0271 0.961439 9.70796 0.815 9.42712L0.270999 8.35012C0.111427 8.04162 0.0576788 7.68922 0.11803 7.34717C0.17838 7.00512 0.349484 6.69239 0.604999 6.45712L1.485 5.63112C1.71808 5.41838 1.88007 5.13908 1.949 4.83112L2.224 3.65612C2.29964 3.31736 2.48446 3.01281 2.75005 2.78932C3.01564 2.56583 3.34729 2.43576 3.694 2.41912L4.894 2.35212C5.21037 2.33874 5.5149 2.22804 5.766 2.03512L6.732 1.31212C7.00806 1.10143 7.34572 0.987305 7.693 0.987305C8.04028 0.987305 8.37793 1.10143 8.654 1.31212H8.662ZM7.085 8.91212L6.037 7.86412C5.97546 7.78735 5.89843 7.72442 5.81093 7.67942C5.72343 7.63443 5.62743 7.60838 5.52919 7.60299C5.43094 7.5976 5.33267 7.61298 5.24077 7.64812C5.14887 7.68327 5.06541 7.73739 4.99584 7.80696C4.92627 7.87654 4.87214 7.95999 4.837 8.05189C4.80185 8.14379 4.78647 8.24207 4.79187 8.34031C4.79726 8.43855 4.8233 8.53456 4.8683 8.62206C4.91329 8.70955 4.97623 8.78659 5.053 8.84812L6.594 10.3941C6.72503 10.5236 6.9018 10.5962 7.086 10.5962C7.2702 10.5962 7.44697 10.5236 7.578 10.3941C8.507 9.46412 9.426 8.52512 10.352 7.59412C10.4192 7.53004 10.4729 7.45313 10.5099 7.36794C10.5469 7.28276 10.5665 7.19101 10.5674 7.09814C10.5684 7.00527 10.5507 6.91315 10.5154 6.82722C10.4802 6.74129 10.4281 6.66331 10.3622 6.59787C10.2963 6.53243 10.2179 6.48086 10.1317 6.44621C10.0455 6.41157 9.9533 6.39455 9.86043 6.39616C9.76757 6.39777 9.67597 6.41797 9.59105 6.45558C9.50613 6.49319 9.4296 6.54744 9.366 6.61512L7.085 8.91212ZM7.701 3.31212C6.50189 3.31215 5.33988 3.72796 4.41297 4.48869C3.48606 5.24942 2.8516 6.30801 2.6177 7.48409C2.38379 8.66017 2.56491 9.88097 3.13019 10.9385C3.69547 11.996 4.60994 12.8248 5.71779 13.2836C6.82563 13.7425 8.0583 13.803 9.20578 13.4549C10.3532 13.1068 11.3445 12.3716 12.0107 11.3746C12.6769 10.3775 12.9767 9.18034 12.8592 7.987C12.7416 6.79367 12.2139 5.67801 11.366 4.83012C10.8847 4.34922 10.3132 3.96809 9.68429 3.70862C9.05535 3.44915 8.38136 3.31645 7.701 3.31812V3.31212ZM11.008 5.19412C10.2431 4.42901 9.23666 3.95278 8.16004 3.84657C7.08342 3.74037 6.00329 4.01076 5.10368 4.61168C4.20408 5.2126 3.54067 6.10686 3.22651 7.14208C2.91234 8.17731 2.96685 9.28944 3.38076 10.289C3.79466 11.2885 4.54235 12.1136 5.49641 12.6237C6.45047 13.1337 7.55187 13.2972 8.61294 13.0862C9.67402 12.8752 10.6291 12.3028 11.3155 11.4666C12.0018 10.6303 12.377 9.58197 12.377 8.50012C12.3778 7.88605 12.2573 7.27787 12.0224 6.71052C11.7874 6.14317 11.4427 5.62783 11.008 5.19412Z" fill="#2C94FC"/>
</svg>
