<svg width="11" height="20" viewBox="0 0 11 20" fill="none" xmlns="http://www.w3.org/2000/svg">
<path d="M9.17506 4.04067H10.9601V0.779669H7.71606C6.72576 0.726613 5.74707 1.01361 4.94226 1.59308C4.13744 2.17254 3.55485 3.00967 3.29106 3.96567C3.06036 4.81921 2.96387 5.70346 3.00506 6.58667L0.0390625 6.59567V10.0167L3.00906 10.0077V19.0247H7.54606V10.0157H10.5461V6.58867H7.54606V5.50967C7.54606 4.83967 7.82906 4.04067 9.17506 4.04067ZM9.79806 7.34067V9.26467H6.79806V18.2737H3.76006V9.25467L0.790062 9.26367V7.34667L3.76806 7.33767L3.76006 6.95567C3.69601 6.02674 3.77938 5.09353 4.00706 4.19067C4.21769 3.39049 4.6993 2.68811 5.36979 2.20325C6.04029 1.71838 6.85817 1.48104 7.68406 1.53167H10.2101V3.29067H9.17506C8.86766 3.2548 8.55612 3.28623 8.26207 3.38277C7.96802 3.47931 7.69849 3.63866 7.47217 3.84976C7.24585 4.06086 7.06815 4.31866 6.9514 4.60529C6.83466 4.89192 6.78165 5.20051 6.79606 5.50967V7.33867L9.79806 7.34067Z" fill="white"/>
</svg>
