<svg width="29" height="28" viewBox="0 0 29 28" fill="none" xmlns="http://www.w3.org/2000/svg">
<path d="M1.64907 5.14709H14.8141C15.0112 6.04342 15.5086 6.84553 16.2238 7.42057C16.9391 7.99561 17.8293 8.30909 18.7471 8.30909C19.6648 8.30909 20.555 7.99561 21.2703 7.42057C21.9856 6.84553 22.4829 6.04342 22.6801 5.14709H27.5891C27.8133 5.13947 28.0257 5.04505 28.1816 4.88376C28.3375 4.72246 28.4247 4.50692 28.4247 4.28259C28.4247 4.05827 28.3375 3.84273 28.1816 3.68143C28.0257 3.52014 27.8133 3.42572 27.5891 3.41809H22.6841C22.4869 2.52177 21.9896 1.71966 21.2743 1.14462C20.559 0.569582 19.6688 0.256104 18.7511 0.256104C17.8333 0.256104 16.9431 0.569582 16.2278 1.14462C15.5126 1.71966 15.0152 2.52177 14.8181 3.41809H1.64907C1.42488 3.42572 1.21242 3.52014 1.05652 3.68143C0.90062 3.84273 0.813477 4.05827 0.813477 4.28259C0.813477 4.50692 0.90062 4.72246 1.05652 4.88376C1.21242 5.04505 1.42488 5.13947 1.64907 5.14709ZM16.4491 4.28509C16.4491 4.28509 16.4491 4.27909 16.4491 4.27609C16.4792 3.6872 16.7343 3.13236 17.1618 2.72618C17.5893 2.32001 18.1564 2.09353 18.7461 2.09353C19.3357 2.09353 19.9029 2.32001 20.3304 2.72618C20.7578 3.13236 21.013 3.6872 21.0431 4.27609V4.28909C21.013 4.87799 20.7578 5.43283 20.3304 5.83901C19.9029 6.24518 19.3357 6.47166 18.7461 6.47166C18.1564 6.47166 17.5893 6.24518 17.1618 5.83901C16.7343 5.43283 16.4792 4.87799 16.4491 4.28909V4.28509ZM27.5891 23.0621H22.6841C22.4869 22.1658 21.9896 21.3637 21.2743 20.7886C20.559 20.2136 19.6688 19.9001 18.7511 19.9001C17.8333 19.9001 16.9431 20.2136 16.2278 20.7886C15.5126 21.3637 15.0152 22.1658 14.8181 23.0621H1.64907C1.42488 23.0697 1.21242 23.1641 1.05652 23.3254C0.90062 23.4867 0.813477 23.7023 0.813477 23.9266C0.813477 24.1509 0.90062 24.3665 1.05652 24.5278C1.21242 24.689 1.42488 24.7835 1.64907 24.7911H14.8141C15.0112 25.6874 15.5086 26.4895 16.2238 27.0646C16.9391 27.6396 17.8293 27.9531 18.7471 27.9531C19.6648 27.9531 20.555 27.6396 21.2703 27.0646C21.9856 26.4895 22.4829 25.6874 22.6801 24.7911H27.5891C27.8133 24.7835 28.0257 24.689 28.1816 24.5278C28.3375 24.3665 28.4247 24.1509 28.4247 23.9266C28.4247 23.7023 28.3375 23.4867 28.1816 23.3254C28.0257 23.1641 27.8133 23.0697 27.5891 23.0621ZM18.7471 26.2241C18.1385 26.2241 17.5546 25.9829 17.1235 25.5533C16.6924 25.1237 16.4492 24.5407 16.4471 23.9321C16.4471 23.9321 16.4471 23.9261 16.4471 23.9231C16.4772 23.3342 16.7323 22.7794 17.1598 22.3732C17.5873 21.967 18.1544 21.7405 18.7441 21.7405C19.3337 21.7405 19.9009 21.967 20.3284 22.3732C20.7558 22.7794 21.011 23.3342 21.0411 23.9231V23.9361C21.0395 24.5451 20.7965 25.1285 20.3653 25.5586C19.9341 25.9886 19.35 26.2301 18.7411 26.2301L18.7471 26.2241ZM27.5891 13.2401H14.4241C14.2269 12.3438 13.7296 11.5417 13.0143 10.9666C12.299 10.3916 11.4088 10.0781 10.4911 10.0781C9.57332 10.0781 8.6831 10.3916 7.96784 10.9666C7.25259 11.5417 6.7552 12.3438 6.55807 13.2401H1.64907C1.42488 13.2477 1.21242 13.3421 1.05652 13.5034C0.90062 13.6647 0.813477 13.8803 0.813477 14.1046C0.813477 14.3289 0.90062 14.5445 1.05652 14.7058C1.21242 14.867 1.42488 14.9615 1.64907 14.9691H6.55907C6.7562 15.8654 7.25359 16.6675 7.96884 17.2426C8.6841 17.8176 9.57432 18.1311 10.4921 18.1311C11.4098 18.1311 12.3 17.8176 13.0153 17.2426C13.7306 16.6675 14.2279 15.8654 14.4251 14.9691H27.5901C27.8143 14.9615 28.0267 14.867 28.1826 14.7058C28.3385 14.5445 28.4257 14.3289 28.4257 14.1046C28.4257 13.8803 28.3385 13.6647 28.1826 13.5034C28.0267 13.3421 27.8133 13.2477 27.5891 13.2401ZM12.7841 14.1041C12.7841 14.1041 12.7841 14.1101 12.7841 14.1131C12.754 14.702 12.4988 15.2568 12.0714 15.663C11.6439 16.0692 11.0767 16.2957 10.4871 16.2957C9.8974 16.2957 9.33026 16.0692 8.90279 15.663C8.47532 15.2568 8.22018 14.702 8.19007 14.1131V14.1041C8.22018 13.5152 8.47532 12.9604 8.90279 12.5542C9.33026 12.148 9.8974 11.9215 10.4871 11.9215C11.0767 11.9215 11.6439 12.148 12.0714 12.5542C12.4988 12.9604 12.754 13.5152 12.7841 14.1041Z" fill="white"/>
</svg>
