<svg width="27" height="29" viewBox="0 0 27 29" fill="none" xmlns="http://www.w3.org/2000/svg">
<path d="M15.519 14.9221L1.39199 28.5221C1.06728 28.2995 0.8023 28.0005 0.620413 27.6514C0.438526 27.3022 0.34531 26.9137 0.348984 26.5201V3.32409C0.345259 2.92958 0.43885 2.54023 0.621472 2.19051C0.804093 1.8408 1.07011 1.54149 1.39598 1.31909L15.519 14.9221Z" fill="#2196F3"/>
<path d="M20.462 10.171L15.519 14.923L1.39197 1.31904C1.4452 1.27776 1.50062 1.23937 1.55797 1.20404C1.9252 0.981059 2.34524 0.859999 2.77481 0.85332C3.20439 0.84664 3.62798 0.954584 4.00197 1.16604L20.462 10.171Z" fill="#4CAF50"/>
<path d="M26.453 14.9229C26.4575 15.3667 26.341 15.8033 26.116 16.1858C25.891 16.5683 25.566 16.8822 25.176 17.0939L20.463 19.6739L15.52 14.9219L20.463 10.1699L25.176 12.7499C25.5663 12.9618 25.8915 13.276 26.1165 13.6589C26.3415 14.0418 26.4579 14.4788 26.453 14.9229Z" fill="#FFC107"/>
<path d="M20.462 19.6741L3.99797 28.6741C3.62343 28.8817 3.20103 28.9874 2.7729 28.9807C2.34477 28.974 1.92586 28.8552 1.55797 28.6361C1.50062 28.6008 1.44521 28.5624 1.39197 28.5211L15.519 14.9211L20.462 19.6741Z" fill="#F44336"/>
</svg>
