<svg width="19" height="20" viewBox="0 0 19 20" fill="none" xmlns="http://www.w3.org/2000/svg">
<path d="M13.6829 0.78125H5.31593C4.00661 0.782838 2.75138 1.30374 1.82564 2.22966C0.899898 3.15559 0.379253 4.41093 0.37793 5.72025L0.37793 14.0883C0.379253 15.3977 0.900036 16.6532 1.82599 17.5792C2.75195 18.5051 4.00743 19.0259 5.31693 19.0273H13.6849C14.9944 19.0259 16.2499 18.5051 17.1759 17.5792C18.1018 16.6532 18.6226 15.3977 18.6239 14.0883V5.72025C18.6226 4.41041 18.1015 3.15462 17.1752 2.22861C16.2488 1.30259 14.9928 0.782044 13.6829 0.78125ZM17.5519 14.0872C17.5509 15.113 17.1429 16.0965 16.4176 16.8219C15.6922 17.5472 14.7087 17.9552 13.6829 17.9562H5.31593C4.29013 17.9552 3.30665 17.5472 2.5813 16.8219C1.85595 16.0965 1.44799 15.113 1.44693 14.0872V5.72025C1.44825 4.69453 1.8563 3.71121 2.58159 2.98592C3.30689 2.26062 4.29021 1.85257 5.31593 1.85125H13.6839C14.7097 1.85231 15.6932 2.26027 16.4186 2.98562C17.1439 3.71097 17.5519 4.69445 17.5529 5.72025L17.5519 14.0872Z" fill="white"/>
<path d="M9.49992 4.91211C8.51319 4.91211 7.54862 5.20471 6.72819 5.75291C5.90775 6.30111 5.2683 7.08028 4.89069 7.99191C4.51309 8.90353 4.41429 9.90664 4.60679 10.8744C4.79929 11.8422 5.27444 12.7311 5.97217 13.4289C6.66989 14.1266 7.55885 14.6017 8.52662 14.7943C9.49439 14.9868 10.4975 14.888 11.4091 14.5103C12.3208 14.1327 13.0999 13.4933 13.6481 12.6729C14.1963 11.8524 14.4889 10.8878 14.4889 9.90111C14.4876 8.57835 13.9616 7.31015 13.0262 6.37482C12.0909 5.43948 10.8227 4.91343 9.49992 4.91211ZM9.49992 13.8201C8.72482 13.8201 7.96712 13.5903 7.32265 13.1596C6.67817 12.729 6.17586 12.117 5.87924 11.4008C5.58262 10.6847 5.50501 9.89676 5.65623 9.13655C5.80744 8.37634 6.18069 7.67804 6.72878 7.12996C7.27686 6.58188 7.97516 6.20863 8.73537 6.05741C9.49558 5.9062 10.2836 5.98381 10.9997 6.28043C11.7158 6.57705 12.3278 7.07936 12.7585 7.72383C13.1891 8.36831 13.4189 9.126 13.4189 9.90111C13.4187 10.9408 13.0058 11.9379 12.271 12.6734C11.5362 13.4089 10.5396 13.8228 9.49992 13.8241V13.8201Z" fill="white"/>
<path d="M14.6079 3.14258C14.3164 3.14258 14.0314 3.22903 13.789 3.39099C13.5466 3.55296 13.3577 3.78316 13.2461 4.0525C13.1346 4.32184 13.1054 4.61821 13.1622 4.90414C13.2191 5.19006 13.3595 5.45271 13.5656 5.65885C13.7718 5.86499 14.0344 6.00537 14.3203 6.06225C14.6063 6.11912 14.9027 6.08993 15.172 5.97837C15.4413 5.86681 15.6715 5.67788 15.8335 5.43549C15.9955 5.19309 16.0819 4.90811 16.0819 4.61658C16.0814 4.22581 15.9259 3.8512 15.6496 3.57488C15.3733 3.29857 14.9987 3.14311 14.6079 3.14258ZM14.6079 5.02158C14.5288 5.02158 14.4515 4.99812 14.3857 4.95416C14.3199 4.91021 14.2686 4.84774 14.2384 4.77465C14.2081 4.70156 14.2002 4.62113 14.2156 4.54354C14.231 4.46595 14.2691 4.39467 14.3251 4.33873C14.381 4.28279 14.4523 4.2447 14.5299 4.22926C14.6075 4.21383 14.6879 4.22175 14.761 4.25202C14.8341 4.2823 14.8966 4.33357 14.9405 4.39935C14.9845 4.46513 15.0079 4.54246 15.0079 4.62157C15.0066 4.72726 14.9641 4.82825 14.8893 4.90298C14.8146 4.97772 14.7136 5.02028 14.6079 5.02158Z" fill="white"/>
</svg>
