<svg width="19" height="20" viewBox="0 0 19 20" fill="none" xmlns="http://www.w3.org/2000/svg">
<path d="M2.7229 0.781458C2.39608 0.778953 2.07199 0.841046 1.76924 0.964168C1.4665 1.08729 1.19106 1.26902 0.958753 1.49891C0.726447 1.7288 0.541852 2.00232 0.415571 2.30376C0.28929 2.60521 0.223813 2.92863 0.2229 3.25546C0.224184 3.58314 0.290422 3.90732 0.417783 4.20925C0.545145 4.51117 0.731102 4.78485 0.9649 5.01446C1.18975 5.24495 1.45943 5.42694 1.75731 5.54923C2.05519 5.67151 2.37496 5.73148 2.6969 5.72546H2.7589C3.07055 5.72392 3.37876 5.66024 3.66551 5.53816C3.95226 5.41608 4.21178 5.23804 4.4289 5.01446C4.66318 4.78438 4.84941 4.51005 4.97679 4.2074C5.10416 3.90476 5.17015 3.57982 5.1709 3.25146C5.17978 2.92913 5.1211 2.60852 4.99865 2.31023C4.8762 2.01194 4.69268 1.74258 4.4599 1.51946C4.23748 1.28259 3.96816 1.09464 3.6691 0.967575C3.37004 0.840515 3.0478 0.77713 2.7229 0.781458ZM3.9909 4.58146C3.82409 4.75656 3.62185 4.89405 3.39767 4.98475C3.17349 5.07546 2.93253 5.11729 2.6909 5.10746C2.20588 5.10667 1.74 4.91817 1.3909 4.58146C1.2114 4.41013 1.06926 4.20355 0.973404 3.97467C0.877551 3.74579 0.830055 3.49957 0.8339 3.25146C0.833306 3.00495 0.882036 2.76081 0.977222 2.53342C1.07241 2.30603 1.21213 2.09999 1.38815 1.92741C1.56417 1.75483 1.77294 1.61922 2.00217 1.52855C2.2314 1.43788 2.47645 1.39399 2.7229 1.39946C3.19846 1.40041 3.65431 1.58951 3.9909 1.92546C4.1681 2.09854 4.30871 2.30545 4.40439 2.53392C4.50007 2.76239 4.54888 3.00776 4.5479 3.25546C4.55239 3.5032 4.50568 3.74921 4.41069 3.97806C4.31571 4.20692 4.1745 4.4137 3.9959 4.58546L3.9909 4.58146Z" fill="white"/>
<path d="M3.93388 6.34766H1.42888C1.3083 6.3476 1.18893 6.37176 1.07787 6.41873C0.966812 6.4657 0.866324 6.53452 0.782374 6.62108C0.698425 6.70764 0.632726 6.81019 0.589179 6.92264C0.545633 7.03508 0.525127 7.15513 0.528878 7.27565V18.0986C0.534718 18.3429 0.634364 18.5756 0.807148 18.7484C0.979932 18.9212 1.21259 19.0208 1.45688 19.0267H3.93088C4.17088 19.0224 4.40028 18.927 4.57259 18.7599C4.7449 18.5928 4.84724 18.3664 4.85888 18.1266V7.27565C4.85307 7.03187 4.75384 6.79964 4.58169 6.62694C4.40955 6.45423 4.17764 6.35425 3.93388 6.34766ZM4.24288 18.1297C4.23606 18.2065 4.2004 18.2779 4.14306 18.3294C4.08573 18.381 4.01099 18.409 3.93388 18.4077H1.45988C1.37977 18.4021 1.30438 18.3677 1.2476 18.3109C1.19082 18.2541 1.15647 18.1788 1.15088 18.0986V7.27565C1.14957 7.19854 1.17751 7.1238 1.22909 7.06647C1.28067 7.00913 1.35206 6.97346 1.42888 6.96664H3.92888C4.00898 6.97224 4.08437 7.00659 4.14115 7.06337C4.19793 7.12015 4.23229 7.19554 4.23788 7.27565L4.24288 18.1297Z" fill="white"/>
<path d="M14.4479 6.0392H13.7989C13.2172 6.03824 12.6416 6.15881 12.1092 6.39318C11.5767 6.62755 11.0991 6.97054 10.7069 7.40021V6.96721C10.6959 6.80693 10.6273 6.65603 10.5137 6.54242C10.4001 6.42882 10.2492 6.3602 10.0889 6.34922H6.9969C6.83928 6.35301 6.68869 6.41531 6.57446 6.52399C6.46023 6.63268 6.39053 6.77997 6.37891 6.93721V18.4722C6.39184 18.6262 6.46292 18.7695 6.57771 18.873C6.69251 18.9764 6.84239 19.0323 6.9969 19.0292H10.3969C10.5514 19.0323 10.7013 18.9764 10.8161 18.873C10.9309 18.7695 11.002 18.6262 11.0149 18.4722V11.7922C11.0043 11.5602 11.0401 11.3284 11.1203 11.1104C11.2004 10.8924 11.3232 10.6925 11.4815 10.5226C11.6398 10.3526 11.8304 10.216 12.0422 10.1206C12.254 10.0252 12.4827 9.97309 12.7149 9.96721C12.9556 9.96473 13.1944 10.0099 13.4175 10.1002C13.6406 10.1905 13.8437 10.3241 14.0149 10.4932C14.1731 10.6616 14.2936 10.8618 14.3683 11.0805C14.4429 11.2991 14.4701 11.5312 14.4479 11.7612V18.4062C14.4589 18.5667 14.5277 18.7177 14.6415 18.8313C14.7553 18.9449 14.9064 19.0135 15.0669 19.0242H18.1639C18.3242 19.0132 18.4751 18.9446 18.5887 18.831C18.7023 18.7174 18.7709 18.5665 18.7819 18.4062V10.4282C18.7938 9.85321 18.6903 9.28165 18.4774 8.74738C18.2645 8.21311 17.9466 7.72697 17.5425 7.31774C17.1384 6.90851 16.6563 6.5845 16.1248 6.36489C15.5932 6.14528 15.023 6.03453 14.4479 6.0392ZM18.1589 18.3782L18.1279 18.4092H15.0969L15.0659 11.7602C15.0885 11.4518 15.048 11.142 14.9469 10.8497C14.8458 10.5574 14.6862 10.2888 14.4779 10.0602C14.2505 9.83315 13.9803 9.6534 13.6831 9.53136C13.3858 9.40932 13.0673 9.34742 12.7459 9.34922C12.1146 9.36624 11.5159 9.63303 11.0811 10.0911C10.6463 10.5491 10.4111 11.1609 10.4269 11.7922V18.4062H7.0269V6.96721H10.0879L10.1189 6.99822V8.94622L10.9539 8.11121L10.9849 8.0802C11.3147 7.63704 11.744 7.2775 12.2381 7.03052C12.7323 6.78354 13.2775 6.65601 13.8299 6.65821H14.4789C14.9697 6.65941 15.4553 6.75852 15.9074 6.94973C16.3594 7.14093 16.7687 7.42038 17.1114 7.77173C17.4541 8.12309 17.7233 8.53927 17.9031 8.99593C18.083 9.45259 18.1699 9.94054 18.1589 10.4312V18.3782Z" fill="white"/>
</svg>
