<svg width="34" height="46" viewBox="0 0 34 46" fill="none" xmlns="http://www.w3.org/2000/svg">
<path d="M16.9209 0.275879C12.5448 0.275879 8.34799 2.01427 5.25364 5.10862C2.15929 8.20297 0.420898 12.3998 0.420898 16.7759C0.420898 25.4899 15.1209 43.9239 15.7499 44.7189C15.8905 44.8941 16.0686 45.0355 16.2711 45.1326C16.4736 45.2298 16.6953 45.2802 16.9199 45.2802C17.1445 45.2802 17.3662 45.2298 17.5687 45.1326C17.7712 45.0355 17.9493 44.8941 18.0899 44.7189C18.7209 43.9219 33.4209 25.4889 33.4209 16.7759C33.4209 14.6091 32.9941 12.4635 32.1649 10.4616C31.3357 8.45973 30.1203 6.64078 28.5882 5.10862C27.056 3.57645 25.237 2.36107 23.2352 1.53187C21.2333 0.702664 19.0877 0.275879 16.9209 0.275879ZM16.9209 21.2759C15.7342 21.2759 14.5742 20.924 13.5875 20.2647C12.6008 19.6054 11.8317 18.6683 11.3776 17.572C10.9235 16.4756 10.8047 15.2692 11.0362 14.1053C11.2677 12.9415 11.8391 11.8724 12.6783 11.0332C13.5174 10.1941 14.5865 9.62268 15.7504 9.39117C16.9142 9.15966 18.1206 9.27848 19.217 9.7326C20.3134 10.1867 21.2504 10.9558 21.9097 11.9425C22.569 12.9292 22.9209 14.0892 22.9209 15.2759C22.9209 16.8672 22.2888 18.3933 21.1635 19.5185C20.0383 20.6437 18.5122 21.2759 16.9209 21.2759Z" fill="#3D3D3D"/>
</svg>
