<svg width="16" height="17" viewBox="0 0 16 17" fill="none" xmlns="http://www.w3.org/2000/svg">
<path d="M1.55195 10.2403C1.56854 10.462 1.54379 10.6847 1.47895 10.8973C1.32633 11.3422 1.34559 11.828 1.53295 12.2593C1.81578 12.6418 2.23321 12.9027 2.70095 12.9893C2.91258 13.0422 3.11351 13.1312 3.29495 13.2523C3.41627 13.4312 3.50372 13.6309 3.55295 13.8413C3.64346 14.3088 3.90566 14.7255 4.28795 15.0093C4.71927 15.1968 5.20514 15.216 5.64995 15.0633C5.8616 14.9972 6.08373 14.9711 6.30495 14.9863C6.49299 15.0828 6.66393 15.2095 6.81095 15.3613C7.12517 15.7278 7.56708 15.9609 8.04695 16.0133C8.52682 15.9609 8.96873 15.7278 9.28295 15.3613C9.42876 15.2098 9.59832 15.0832 9.78495 14.9863C10.0066 14.9695 10.2294 14.9943 10.4419 15.0593C10.8868 15.212 11.3726 15.1928 11.8039 15.0053C12.1862 14.7215 12.4484 14.3048 12.5389 13.8373C12.5882 13.6269 12.6756 13.4272 12.7969 13.2483C12.9794 13.1272 13.1813 13.0386 13.3939 12.9863C13.8617 12.8997 14.2791 12.6388 14.5619 12.2563C14.7493 11.825 14.7686 11.3392 14.6159 10.8943C14.5509 10.6818 14.5261 10.459 14.5429 10.2373C14.636 10.0472 14.7631 9.87566 14.9179 9.73133C15.2844 9.41711 15.5175 8.97519 15.5699 8.49533C15.5175 8.01689 15.2842 7.57655 14.9179 7.26433C14.7642 7.11901 14.6372 6.94772 14.5429 6.75833C14.5259 6.53669 14.5507 6.31382 14.6159 6.10133C14.7687 5.65651 14.7494 5.17065 14.5619 4.73933C14.2781 4.35703 13.8614 4.09483 13.3939 4.00433C13.182 3.95495 12.9807 3.86753 12.7999 3.74633C12.6778 3.56608 12.5903 3.36464 12.5419 3.15233C12.4508 2.68646 12.1886 2.27157 11.8069 1.98933C11.3756 1.80187 10.8898 1.78261 10.4449 1.93533C10.2317 1.99692 10.0093 2.01995 9.78795 2.00333C9.59778 1.9103 9.42628 1.7832 9.28195 1.62833C8.96538 1.267 8.52457 1.03785 8.04695 0.986328C7.56825 1.03891 7.12694 1.26992 6.81095 1.63333C6.66662 1.7882 6.49512 1.9153 6.30495 2.00833C6.08365 2.02476 5.86119 2.00174 5.64795 1.94033C5.20347 1.78533 4.71676 1.80463 4.28595 1.99433C3.90427 2.27657 3.64206 2.69146 3.55095 3.15733C3.50261 3.36964 3.41511 3.57108 3.29295 3.75133C3.11218 3.87253 2.91092 3.95995 2.69895 4.00933C2.23148 4.09983 1.81481 4.36203 1.53095 4.74433C1.34349 5.17565 1.32423 5.66151 1.47695 6.10633C1.54223 6.31882 1.56699 6.54169 1.54995 6.76333C1.45566 6.95272 1.32872 7.12401 1.17495 7.26933C0.808651 7.58155 0.575427 8.02189 0.522949 8.50033C0.57538 8.98019 0.808496 9.42211 1.17495 9.73633C1.32982 9.88066 1.45692 10.0522 1.54995 10.2423L1.55195 10.2403ZM4.71395 7.70533C4.74096 7.61908 4.79181 7.54222 4.86065 7.48365C4.92948 7.42508 5.01349 7.38718 5.10295 7.37433L6.83495 7.12133L7.60895 5.54933C7.65418 5.4735 7.71832 5.41071 7.7951 5.36711C7.87187 5.32351 7.95866 5.30059 8.04695 5.30059C8.13524 5.30059 8.22202 5.32351 8.2988 5.36711C8.37558 5.41071 8.43972 5.4735 8.48495 5.54933L9.25895 7.12133L10.9909 7.37433C11.0802 7.38785 11.1639 7.42594 11.2327 7.48435C11.3015 7.54276 11.3527 7.61917 11.3805 7.70502C11.4083 7.79087 11.4117 7.88278 11.3902 7.97044C11.3687 8.05809 11.3233 8.13804 11.2589 8.20133L10.0089 9.42733L10.3009 11.1493C10.3138 11.2191 10.311 11.2908 10.2929 11.3594C10.2748 11.4279 10.2418 11.4916 10.1962 11.546C10.1507 11.6003 10.0937 11.644 10.0293 11.6737C9.96499 11.7035 9.89486 11.7188 9.82395 11.7183C9.74459 11.7173 9.66642 11.6988 9.59495 11.6643L8.04795 10.8473L6.50095 11.6643C6.41965 11.7057 6.3286 11.724 6.23765 11.7173C6.1467 11.7106 6.05931 11.6791 5.98495 11.6263C5.91173 11.5726 5.85508 11.4994 5.82148 11.4151C5.78789 11.3308 5.77869 11.2387 5.79495 11.1493L6.08695 9.42733L4.83695 8.20133C4.77134 8.1381 4.72505 8.05754 4.70345 7.96902C4.68185 7.8805 4.68584 7.78767 4.71495 7.70133L4.71395 7.70533Z" fill="#FFD302"/>
</svg>
