<svg width="245" height="35" viewBox="0 0 245 35" fill="none" xmlns="http://www.w3.org/2000/svg">
<path d="M25.74 1.11108L17.545 24.3741L9.30604 1.11108H0.670044V33.1851H7.27904V24.4181L6.61904 9.30608L15.254 33.1851H19.792L28.45 9.28508L27.788 24.4191V33.1861H34.42V1.11108H25.74Z" fill="black"/>
<mask id="mask0_1_628" style="mask-type:luminance" maskUnits="userSpaceOnUse" x="0" y="0" width="245" height="35">
<path d="M244.28 0H0V34.297H244.28V0Z" fill="white"/>
</mask>
<g mask="url(#mask0_1_628)">
<path d="M9.30604 1.11108L17.545 24.3741L25.74 1.11108H34.419V33.1851H27.789V24.4181L28.45 9.28408L19.792 33.1841H15.254L6.61804 9.30608L7.27904 24.4181V33.1851H0.670044V1.11108H9.30604Z" stroke="black" stroke-width="1.341" stroke-miterlimit="10"/>
</g>
<path d="M48.827 1.11108L57.066 24.3741L65.261 1.11108H73.94V33.1851H67.31V24.4181L67.971 9.28408L59.313 33.1841H54.775L46.139 9.30608L46.8 24.4181V33.1851H40.192V1.11108H48.827Z" fill="black"/>
<mask id="mask1_1_628" style="mask-type:luminance" maskUnits="userSpaceOnUse" x="0" y="0" width="245" height="35">
<path d="M244.28 0H0V34.297H244.28V0Z" fill="white"/>
</mask>
<g mask="url(#mask1_1_628)">
<path d="M48.827 1.11108L57.066 24.3741L65.261 1.11108H73.94V33.1851H67.31V24.4181L67.971 9.28408L59.313 33.1841H54.775L46.139 9.30608L46.8 24.4181V33.1851H40.192V1.11108H48.827Z" stroke="black" stroke-width="1.341" stroke-miterlimit="10"/>
</g>
<path d="M97.82 26.5771H86.233L84.033 33.1861H77L88.942 1.11206H95.066L107.072 33.1861H100.045L97.82 26.5771ZM88.02 21.2241H96.039L92 9.21806L88.02 21.2241Z" fill="black"/>
<mask id="mask2_1_628" style="mask-type:luminance" maskUnits="userSpaceOnUse" x="0" y="0" width="245" height="35">
<path d="M244.28 0H0V34.297H244.28V0Z" fill="white"/>
</mask>
<g mask="url(#mask2_1_628)">
<path d="M97.82 26.5771H86.233L84.033 33.1861H77L88.942 1.11206H95.066L107.072 33.1861H100.045L97.82 26.5771ZM88.02 21.2241H96.039L92 9.21806L88.02 21.2241Z" stroke="black" stroke-width="1.341" stroke-miterlimit="10"/>
</g>
<path d="M153.047 1.11206H146.438V33.1861H153.047V1.11206Z" fill="black"/>
<mask id="mask3_1_628" style="mask-type:luminance" maskUnits="userSpaceOnUse" x="0" y="0" width="245" height="35">
<path d="M244.28 0H0V34.297H244.28V0Z" fill="white"/>
</mask>
<g mask="url(#mask3_1_628)">
<path d="M153.047 1.11206H146.438V33.1861H153.047V1.11206Z" stroke="black" stroke-width="1.341" stroke-miterlimit="10"/>
</g>
<path d="M185.254 33.1861H178.645L165.78 12.0861V33.1861H159.171V1.11206H165.78L178.667 22.2591V1.11206H185.254V33.1861Z" fill="black"/>
<mask id="mask4_1_628" style="mask-type:luminance" maskUnits="userSpaceOnUse" x="0" y="0" width="245" height="35">
<path d="M244.28 0H0V34.297H244.28V0Z" fill="white"/>
</mask>
<g mask="url(#mask4_1_628)">
<path d="M185.254 33.1858H178.645L165.78 12.0858V33.1858H159.171V1.11182H165.78L178.667 22.2588V1.11182H185.254V33.1858Z" stroke="black" stroke-width="1.341" stroke-miterlimit="10"/>
<path d="M191.026 33.185V1.11097H200.9C203.546 1.06682 206.157 1.72409 208.467 3.01597C210.689 4.28345 212.498 6.16545 213.677 8.43597C214.955 10.9008 215.598 13.6451 215.55 16.421V17.9C215.601 20.6621 214.969 23.394 213.71 25.853C212.54 28.1167 210.738 29.9925 208.523 31.253C206.217 32.5498 203.611 33.2181 200.966 33.191L191.026 33.185ZM197.635 6.46397V27.877H200.829C201.946 27.9458 203.064 27.7526 204.092 27.3126C205.121 26.8726 206.033 26.1981 206.755 25.343C208.121 23.6536 208.819 21.238 208.848 18.096V16.4C208.848 13.14 208.172 10.669 206.821 8.98697C206.1 8.13307 205.189 7.46006 204.16 7.02191C203.132 6.58377 202.015 6.39268 200.9 6.46397H197.635Z" fill="black"/>
<path d="M191.026 33.185V1.11097H200.9C203.546 1.06682 206.157 1.72409 208.467 3.01597C210.689 4.28345 212.498 6.16545 213.677 8.43597C214.955 10.9008 215.598 13.6451 215.55 16.421V17.9C215.601 20.6621 214.969 23.394 213.71 25.853C212.54 28.1167 210.738 29.9925 208.523 31.253C206.217 32.5498 203.611 33.2181 200.966 33.191L191.026 33.185ZM197.635 6.46397V27.877H200.829C201.946 27.9458 203.064 27.7526 204.092 27.3126C205.121 26.8726 206.033 26.1981 206.755 25.343C208.121 23.6536 208.819 21.238 208.848 18.096V16.4C208.848 13.14 208.172 10.669 206.821 8.98697C206.1 8.13307 205.189 7.46006 204.16 7.02191C203.132 6.58376 202.015 6.39268 200.9 6.46397H197.635Z" stroke="black" stroke-width="1.341" stroke-miterlimit="10"/>
<path d="M236.979 24.771C237.009 24.2205 236.904 23.671 236.674 23.17C236.443 22.6691 236.094 22.2318 235.657 21.896C234.186 20.9557 232.582 20.2426 230.899 19.781C229.025 19.2103 227.204 18.4768 225.458 17.589C221.815 15.6217 219.994 12.971 219.994 9.63703C219.972 7.9742 220.486 6.34843 221.459 5.00003C222.536 3.56528 223.994 2.46199 225.667 1.81603C227.623 1.02862 229.716 0.639357 231.824 0.67103C233.932 0.633131 236.022 1.05812 237.948 1.91603C239.646 2.66568 241.094 3.88444 242.123 5.42903C243.12 6.96146 243.638 8.75612 243.61 10.584H237C237.036 9.94592 236.93 9.30778 236.69 8.71543C236.45 8.12308 236.082 7.59122 235.612 7.15803C234.508 6.28262 233.118 5.84728 231.712 5.93603C230.378 5.85507 229.054 6.21487 227.945 6.96003C227.518 7.26689 227.173 7.67316 226.939 8.14365C226.705 8.61413 226.589 9.13463 226.601 9.66003C226.614 10.196 226.767 10.7192 227.043 11.1788C227.319 11.6384 227.709 12.0185 228.176 12.282C229.62 13.1591 231.182 13.8264 232.814 14.264C236.573 15.3974 239.312 16.8 241.03 18.472C241.871 19.2782 242.535 20.2509 242.979 21.3281C243.423 22.4053 243.637 23.5633 243.608 24.728C243.658 25.9915 243.397 27.248 242.848 28.3869C242.298 29.5259 241.478 30.5125 240.458 31.26C238.357 32.8394 235.529 33.6287 231.976 33.628C229.658 33.6583 227.361 33.1964 225.235 32.273C223.37 31.4988 221.763 30.2113 220.6 28.56C219.521 26.9462 218.963 25.0408 219 23.1H225.631C225.631 26.6387 227.746 28.4084 231.975 28.409C233.272 28.4844 234.559 28.1492 235.654 27.451C236.081 27.1508 236.425 26.7485 236.656 26.2809C236.887 25.8132 236.997 25.2952 236.976 24.774" fill="black"/>
<path d="M236.979 24.771C237.009 24.2205 236.904 23.671 236.674 23.17C236.443 22.6691 236.094 22.2318 235.657 21.896C234.186 20.9557 232.582 20.2426 230.899 19.781C229.025 19.2103 227.204 18.4768 225.458 17.589C221.815 15.6217 219.994 12.971 219.994 9.63703C219.972 7.9742 220.486 6.34843 221.459 5.00003C222.536 3.56528 223.994 2.46199 225.667 1.81603C227.623 1.02862 229.716 0.639357 231.824 0.67103C233.932 0.633131 236.022 1.05812 237.948 1.91603C239.646 2.66568 241.094 3.88444 242.123 5.42903C243.12 6.96146 243.638 8.75612 243.61 10.584H237C237.036 9.94592 236.93 9.30778 236.69 8.71543C236.45 8.12308 236.082 7.59122 235.612 7.15803C234.508 6.28262 233.118 5.84728 231.712 5.93603C230.378 5.85507 229.054 6.21487 227.945 6.96003C227.518 7.26689 227.173 7.67316 226.939 8.14365C226.705 8.61413 226.589 9.13463 226.601 9.66003C226.614 10.196 226.767 10.7192 227.043 11.1788C227.319 11.6384 227.709 12.0185 228.176 12.282C229.62 13.1591 231.182 13.8264 232.814 14.264C236.573 15.3974 239.312 16.8 241.03 18.472C241.871 19.2782 242.535 20.2509 242.979 21.3281C243.423 22.4053 243.637 23.5633 243.608 24.728C243.658 25.9915 243.397 27.248 242.848 28.3869C242.298 29.5259 241.478 30.5125 240.458 31.26C238.357 32.8394 235.529 33.6287 231.976 33.628C229.658 33.6583 227.361 33.1964 225.235 32.273C223.37 31.4988 221.763 30.2113 220.6 28.56C219.521 26.9462 218.963 25.0408 219 23.1H225.631C225.631 26.6387 227.746 28.4084 231.975 28.409C233.272 28.4844 234.559 28.1492 235.654 27.451C236.082 27.1509 236.427 26.7482 236.658 26.28C236.89 25.8118 237 25.2929 236.979 24.771Z" stroke="black" stroke-width="1.341" stroke-miterlimit="10"/>
<path d="M144.048 6.60692V0.440918H121.724V33.8409H129.769V20.3719H144.048V14.1239H129.769V6.60692H144.048Z" fill="black"/>
</g>
</svg>
