<svg width="0" height="0" fill="none" style="visibility: hidden; position: absolute;" aria-hidden="true">
    <symbol id="accaunt" xmlns="http://www.w3.org/2000/svg" width="32" height="32" viewBox="0 0 32 32">
        <path d="M26.595 5.057c-2.798-2.798-6.592-4.369-10.549-4.369s-7.751 1.572-10.549 4.369-4.369 6.592-4.369 10.549c0 3.956 1.572 7.751 4.369 10.549s6.592 4.369 10.549 4.369c3.956 0 7.751-1.572 10.549-4.369s4.369-6.592 4.369-10.549c0-3.957-1.572-7.751-4.369-10.549zM7.603 25.704c0.25-2.066 1.246-3.97 2.801-5.353s3.562-2.151 5.643-2.158c2.083 0 4.093 0.765 5.65 2.15s2.55 3.292 2.794 5.361c-2.366 1.984-5.356 3.071-8.443 3.071s-6.077-1.087-8.444-3.071zM16.046 16.393c-0.896 0-1.772-0.266-2.518-0.764s-1.326-1.206-1.669-2.034-0.433-1.739-0.258-2.618c0.175-0.879 0.607-1.686 1.24-2.32s1.441-1.065 2.32-1.24c0.879-0.175 1.79-0.085 2.618 0.258s1.536 0.924 2.034 1.669c0.498 0.745 0.764 1.621 0.764 2.518-0.001 1.201-0.479 2.353-1.329 3.203s-2.002 1.327-3.203 1.329zM25.989 24.226c-0.406-1.629-1.204-3.134-2.326-4.382s-2.532-2.204-4.108-2.782c1.114-0.752 1.957-1.843 2.405-3.11s0.478-2.645 0.084-3.931-1.189-2.411-2.27-3.21c-1.081-0.8-2.39-1.231-3.734-1.231s-2.653 0.431-3.734 1.231c-1.081 0.8-1.877 1.925-2.27 3.21s-0.364 2.663 0.084 3.931c0.448 1.267 1.291 2.358 2.405 3.11-1.577 0.576-2.988 1.531-4.11 2.779s-1.921 2.753-2.327 4.382c-1.654-1.908-2.725-4.251-3.085-6.75s0.006-5.049 1.054-7.346c1.048-2.297 2.735-4.244 4.859-5.61s4.596-2.091 7.121-2.091c2.525 0 4.997 0.726 7.121 2.091s3.811 3.313 4.859 5.61 1.415 4.847 1.054 7.346c-0.36 2.499-1.431 4.842-3.085 6.75v0.003z"></path>
    </symbol>
    <symbol id="balance" xmlns="http://www.w3.org/2000/svg" width="32" height="32" viewBox="0 0 32 32">
        <path fill="#1b5441" d="M16.043 0.571c-3.024 0-5.98 0.897-8.494 2.577s-4.474 4.068-5.631 6.861c-1.157 2.794-1.46 5.868-0.87 8.833s2.046 5.69 4.184 7.828c2.138 2.138 4.862 3.594 7.828 4.184s6.040 0.287 8.833-0.87c2.794-1.157 5.181-3.117 6.861-5.631s2.576-5.47 2.576-8.494c-0.004-4.053-1.616-7.939-4.482-10.805s-6.752-4.478-10.806-4.482zM16.043 2.61c2.623-0.002 5.187 0.775 7.368 2.231s3.882 3.527 4.886 5.949c1.004 2.423 1.267 5.089 0.756 7.662s-1.774 4.935-3.629 6.79-4.218 3.117-6.79 3.628c-2.572 0.511-5.239 0.248-7.661-0.757s-4.493-2.705-5.949-4.887-2.232-4.746-2.23-7.369c-0.001-1.74 0.341-3.464 1.006-5.071s1.641-3.069 2.872-4.299c1.231-1.231 2.691-2.206 4.299-2.872s3.331-1.006 5.071-1.005zM16.030 7.712c-0.269 0.005-0.525 0.116-0.712 0.308s-0.291 0.452-0.289 0.72v0.858c-0.812 0.067-1.572 0.43-2.135 1.020s-0.89 1.365-0.919 2.18c-0.012 0.555 0.104 1.104 0.337 1.608s0.578 0.947 1.008 1.296c0.73 0.512 1.545 0.891 2.407 1.121 0.636 0.173 1.242 0.439 1.8 0.79 0.205 0.143 0.366 0.341 0.465 0.571s0.13 0.483 0.091 0.731c0 1.698-4.069 1.698-4.069 0 0-0.27-0.107-0.53-0.299-0.721s-0.45-0.299-0.721-0.299-0.53 0.107-0.721 0.299c-0.191 0.191-0.299 0.45-0.299 0.721 0.029 0.816 0.355 1.592 0.918 2.183s1.322 0.955 2.136 1.024v0.854c0 0.27 0.107 0.53 0.299 0.721s0.45 0.299 0.721 0.299 0.53-0.107 0.721-0.299c0.191-0.191 0.299-0.45 0.299-0.721v-0.854c0.814-0.068 1.574-0.432 2.137-1.023s0.89-1.368 0.919-2.184c0.011-0.555-0.104-1.105-0.338-1.608s-0.579-0.947-1.010-1.296c-0.73-0.512-1.545-0.892-2.407-1.122-0.636-0.173-1.242-0.438-1.8-0.789-0.205-0.143-0.366-0.341-0.465-0.571s-0.13-0.483-0.091-0.731c0-1.698 4.069-1.698 4.069 0-0.005 0.137 0.018 0.273 0.068 0.401s0.124 0.244 0.219 0.343 0.209 0.177 0.335 0.23c0.126 0.053 0.262 0.081 0.398 0.081s0.272-0.028 0.398-0.081c0.126-0.053 0.24-0.132 0.335-0.23s0.17-0.215 0.219-0.343c0.049-0.128 0.072-0.264 0.068-0.401-0.030-0.815-0.358-1.59-0.921-2.18s-1.323-0.953-2.135-1.020v-0.856c0.001-0.136-0.025-0.271-0.077-0.397s-0.128-0.24-0.225-0.336c-0.097-0.096-0.211-0.171-0.338-0.222s-0.261-0.076-0.398-0.073v-0.002z"></path>
    </symbol>
    <symbol id="fighters" xmlns="http://www.w3.org/2000/svg" width="24" height="32" viewBox="0 0 24 32">
        <path fill="none" stroke="#000" stroke-linejoin="round" stroke-linecap="round" stroke-miterlimit="10" stroke-width="1.1429" d="M18.349 3.773v-1.208h-4.229v-1.208h-4.229v2.416h-4.229v6.643l-1.811-2.416-3.017 1.208 0.51 6.113c0.194 2.327 1.187 4.516 2.811 6.194 0.394 0.406 0.865 0.728 1.386 0.948s1.081 0.333 1.646 0.333h12.368c0.873-0.262 1.638-0.798 2.182-1.529s0.838-1.618 0.838-2.529v-14.966h-4.226z"></path>
        <path fill="none" stroke="#000" stroke-linejoin="round" stroke-linecap="round" stroke-miterlimit="10" stroke-width="1.1429" d="M6.611 24.228c0.087-0.405 0.31-0.768 0.633-1.029s0.724-0.403 1.139-0.403h10.266c0.238 0 0.474 0.047 0.693 0.138s0.419 0.224 0.588 0.393 0.302 0.368 0.393 0.588c0.091 0.22 0.138 0.455 0.138 0.693v4.65c0 0.238-0.047 0.473-0.138 0.693s-0.224 0.42-0.393 0.588c-0.168 0.168-0.368 0.302-0.588 0.393s-0.455 0.138-0.693 0.138h-10.266c-0.41 0-0.809-0.139-1.13-0.395s-0.546-0.613-0.637-1.013"></path>
        <path d="M7.143 26.933c0 0.316-0.256 0.571-0.571 0.571s-0.571-0.256-0.571-0.571c0-0.316 0.256-0.571 0.571-0.571s0.571 0.256 0.571 0.571z"></path>
        <path fill="none" stroke="#000" stroke-linejoin="round" stroke-linecap="round" stroke-miterlimit="10" stroke-width="1.1429" d="M11.297 22.796h0.302c1.097 0 2.15 0.436 2.925 1.212s1.212 1.828 1.212 2.925-0.436 2.149-1.212 2.925c-0.776 0.776-1.828 1.212-2.925 1.212h-0.302"></path>
        <path fill="none" stroke="#000" stroke-linejoin="round" stroke-linecap="round" stroke-miterlimit="10" stroke-width="1.1429" d="M20.462 25.726v2.416h-4.905c0.239-0.788 0.239-1.628 0-2.416h4.905z"></path>
        <path fill="none" stroke="#000" stroke-linejoin="round" stroke-linecap="round" stroke-miterlimit="10" stroke-width="1.1429" d="M9.773 3.592v2.234"></path>
        <path fill="none" stroke="#000" stroke-linejoin="round" stroke-linecap="round" stroke-miterlimit="10" stroke-width="1.1429" d="M14.242 2.474v2.234"></path>
        <path fill="none" stroke="#000" stroke-linejoin="round" stroke-linecap="round" stroke-miterlimit="10" stroke-width="1.1429" d="M18.711 3.592v2.234"></path>
        <path fill="none" stroke="#000" stroke-linejoin="round" stroke-linecap="round" stroke-miterlimit="10" stroke-width="1.1429" d="M22.579 10.415v1.359c-0 0.961-0.382 1.882-1.061 2.561s-1.601 1.061-2.561 1.062h-9.663c-0.961-0-1.882-0.382-2.561-1.062s-1.061-1.601-1.061-2.561v-1.359"></path>
        <path fill="none" stroke="#000" stroke-linejoin="round" stroke-linecap="round" stroke-miterlimit="10" stroke-width="1.1429" d="M22.579 18.738c-0.006-0.461-0.106-0.916-0.294-1.337s-0.46-0.8-0.799-1.112c-0.339-0.313-0.738-0.553-1.173-0.706s-0.897-0.216-1.357-0.184h-9.663c-0.961 0-1.882 0.382-2.562 1.062s-1.061 1.601-1.061 2.562v3.473"></path>
        <path fill="none" stroke="#000" stroke-linejoin="round" stroke-linecap="round" stroke-miterlimit="10" stroke-width="1.1429" d="M7.538 8.061h12.29"></path>
        <path d="M13.891 26.933c0 0.316-0.256 0.571-0.571 0.571s-0.571-0.256-0.571-0.571c0-0.316 0.256-0.571 0.571-0.571s0.571 0.256 0.571 0.571z"></path>
    </symbol>
    <symbol id="friends" xmlns="http://www.w3.org/2000/svg" width="32" height="32" viewBox="0 0 32 32">
        <path d="M27.964 22.506h-3.579v-3.579c0-0.271-0.108-0.531-0.299-0.723s-0.452-0.3-0.723-0.3c-0.271 0-0.531 0.108-0.723 0.3s-0.3 0.452-0.3 0.723v3.579h-3.579c-0.271 0-0.531 0.108-0.723 0.3s-0.3 0.452-0.3 0.723c0 0.271 0.108 0.531 0.3 0.723s0.452 0.299 0.723 0.299h3.579v3.579c0 0.271 0.108 0.531 0.3 0.723s0.452 0.299 0.723 0.299c0.271 0 0.531-0.108 0.723-0.299s0.299-0.452 0.299-0.723v-3.579h3.579c0.271 0 0.531-0.108 0.723-0.299s0.299-0.452 0.299-0.723c0-0.271-0.108-0.531-0.299-0.723s-0.452-0.3-0.723-0.3z"></path>
        <path d="M15.694 29.153h-10.226c-0.271 0-0.531-0.108-0.723-0.3s-0.3-0.452-0.3-0.723c0.003-2.982 1.189-5.841 3.298-7.95s4.968-3.295 7.95-3.298c1.977 0.006 3.889-0.701 5.385-1.992s2.477-3.079 2.761-5.035-0.148-3.949-1.215-5.612c-1.068-1.663-2.7-2.885-4.597-3.442s-3.93-0.409-5.727 0.414c-1.797 0.823-3.236 2.267-4.054 4.067s-0.958 3.834-0.395 5.729c0.562 1.895 1.79 3.523 3.457 4.585-2.599 0.91-4.852 2.605-6.447 4.85s-2.455 4.93-2.46 7.684c0 0.813 0.323 1.594 0.898 2.169s1.355 0.898 2.169 0.898h10.226c0.271 0 0.531-0.108 0.723-0.3s0.3-0.452 0.3-0.723c0-0.271-0.108-0.531-0.3-0.723s-0.452-0.298-0.723-0.298zM9.559 8.708c0-1.214 0.36-2.4 1.034-3.409s1.632-1.795 2.754-2.26c1.121-0.464 2.355-0.586 3.545-0.349s2.284 0.821 3.142 1.679 1.442 1.951 1.679 3.142c0.237 1.19 0.115 2.424-0.349 3.545s-1.251 2.079-2.26 2.754c-1.009 0.674-2.195 1.034-3.409 1.034-1.627 0-3.188-0.647-4.339-1.797s-1.797-2.711-1.797-4.339z"></path>
    </symbol>
    <symbol id="legal" xmlns="http://www.w3.org/2000/svg" width="32" height="32" viewBox="0 0 32 32">
        <path fill="none" stroke-linejoin="round" stroke-linecap="round" stroke-miterlimit="10" stroke-width="1.2308" stroke="#000" d="M22.565 30.259h-13.001c0-0.834 0.331-1.633 0.921-2.223s1.389-0.921 2.223-0.921h6.714c0.834 0 1.633 0.331 2.223 0.921s0.921 1.389 0.921 2.223z"></path>
        <path fill="none" stroke-linejoin="round" stroke-linecap="round" stroke-miterlimit="10" stroke-width="1.2308" stroke="#000" d="M18.144 3.735c0 0.555-0.22 1.087-0.613 1.479s-0.925 0.613-1.479 0.613c-0.275 0.001-0.548-0.052-0.803-0.157s-0.486-0.259-0.681-0.453-0.35-0.425-0.456-0.68c-0.106-0.254-0.16-0.527-0.16-0.802 0-0.555 0.22-1.087 0.613-1.479s0.925-0.613 1.479-0.613c0.275-0.001 0.548 0.052 0.803 0.157s0.486 0.259 0.681 0.453 0.35 0.425 0.456 0.68c0.106 0.254 0.16 0.527 0.16 0.802z"></path>
        <path fill="none" stroke-linejoin="round" stroke-linecap="round" stroke-miterlimit="10" stroke-width="1.2308" stroke="#000" d="M17.461 5.413v21.703h-2.794v-21.703"></path>
        <path fill="none" stroke-linejoin="round" stroke-linecap="round" stroke-miterlimit="10" stroke-width="1.2308" stroke="#000" d="M26.752 5.413c0 0.388-0.154 0.761-0.429 1.036s-0.647 0.429-1.036 0.429c-0.192 0-0.383-0.038-0.561-0.111s-0.339-0.181-0.476-0.317c-0.136-0.136-0.244-0.298-0.318-0.475s-0.112-0.368-0.112-0.561h-6.361"></path>
        <path fill="none" stroke-linejoin="round" stroke-linecap="round" stroke-miterlimit="10" stroke-width="1.2308" stroke="#000" d="M5.344 5.413c0 0.388 0.154 0.761 0.429 1.036s0.647 0.429 1.036 0.429c0.192 0 0.383-0.038 0.561-0.111s0.339-0.181 0.476-0.317c0.136-0.136 0.244-0.298 0.318-0.475s0.112-0.368 0.112-0.561h6.361"></path>
        <path fill="none" stroke-linejoin="round" stroke-linecap="round" stroke-miterlimit="10" stroke-width="1.2308" stroke="#000" d="M11.872 15.938l-5.065-9.061-5.065 9.061c0 1.112 0.442 2.177 1.227 2.963s1.852 1.227 2.963 1.227h1.746c0.55 0 1.096-0.108 1.604-0.319s0.971-0.519 1.36-0.908 0.698-0.851 0.909-1.36c0.211-0.509 0.319-1.054 0.319-1.604z"></path>
        <path fill="none" stroke-linejoin="round" stroke-linecap="round" stroke-miterlimit="10" stroke-width="1.2308" stroke="#000" d="M25.287 6.877l-5.065 9.061c0 1.112 0.442 2.177 1.227 2.963s1.852 1.227 2.963 1.227h1.746c1.111 0 2.177-0.441 2.963-1.227s1.227-1.852 1.227-2.963l-5.063-9.061z"></path>
        <path fill="none" stroke-linejoin="round" stroke-linecap="round" stroke-miterlimit="10" stroke-width="1.2308" stroke="#000" d="M1.964 15.939h9.689"></path>
        <path fill="none" stroke-linejoin="round" stroke-linecap="round" stroke-miterlimit="10" stroke-width="1.2308" stroke="#000" d="M11.653 15.939h-9.689"></path>
        <path fill="none" stroke-linejoin="round" stroke-linecap="round" stroke-miterlimit="10" stroke-width="1.2308" stroke="#000" d="M30.137 15.939h-9.696"></path>
        <path fill="none" stroke-linejoin="round" stroke-linecap="round" stroke-miterlimit="10" stroke-width="1.2308" stroke="#000" d="M20.439 15.939h9.696"></path>
    </symbol>
    <symbol id="preferences" xmlns="http://www.w3.org/2000/svg" width="32" height="32" viewBox="0 0 32 32">
        <path d="M17.441 30.96h-2.79c-0.455-0.001-0.894-0.169-1.234-0.472s-0.558-0.719-0.612-1.171l-0.298-2.338c-0.588-0.191-1.159-0.427-1.71-0.708l-1.86 1.447c-0.359 0.282-0.809 0.423-1.265 0.394s-0.885-0.225-1.205-0.55l-1.961-1.961c-0.324-0.32-0.519-0.747-0.547-1.202s0.113-0.903 0.396-1.26l1.444-1.866c-0.281-0.55-0.518-1.122-0.708-1.71l-2.338-0.298c-0.452-0.055-0.868-0.274-1.17-0.614s-0.47-0.779-0.471-1.234v-2.79c0.001-0.455 0.169-0.894 0.472-1.234s0.719-0.558 1.171-0.612l2.338-0.298c0.191-0.588 0.427-1.159 0.708-1.71l-1.447-1.86c-0.283-0.359-0.423-0.81-0.394-1.266s0.225-0.885 0.551-1.206l1.961-1.961c0.32-0.323 0.748-0.517 1.202-0.545s0.902 0.112 1.26 0.393l1.861 1.445c0.551-0.281 1.123-0.517 1.711-0.708l0.298-2.338c0.054-0.452 0.272-0.868 0.613-1.171s0.779-0.469 1.235-0.47h2.788c0.455 0.001 0.894 0.169 1.234 0.472s0.558 0.719 0.612 1.171l0.298 2.338c0.588 0.19 1.16 0.427 1.711 0.708l1.86-1.445c0.359-0.282 0.809-0.423 1.265-0.394s0.885 0.225 1.205 0.551l1.961 1.961c0.324 0.319 0.519 0.747 0.547 1.202s-0.113 0.903-0.396 1.26l-1.439 1.858c0.281 0.55 0.518 1.122 0.708 1.71l2.338 0.298c0.452 0.055 0.868 0.273 1.17 0.614s0.469 0.78 0.47 1.235v2.788c-0.001 0.455-0.169 0.894-0.472 1.234s-0.719 0.558-1.171 0.612l-2.338 0.298c-0.191 0.587-0.427 1.159-0.708 1.71l1.445 1.86c0.283 0.359 0.423 0.809 0.394 1.265s-0.225 0.885-0.551 1.205l-1.961 1.961c-0.32 0.324-0.748 0.519-1.202 0.547s-0.903-0.113-1.26-0.396l-1.862-1.439c-0.55 0.281-1.122 0.518-1.71 0.708l-0.298 2.338c-0.055 0.451-0.273 0.867-0.613 1.169s-0.778 0.469-1.233 0.471l-0.002 0.002zM10.734 24.911c0.106 0 0.211 0.027 0.304 0.079 0.699 0.389 1.439 0.696 2.208 0.916 0.117 0.033 0.222 0.1 0.302 0.192s0.129 0.206 0.144 0.327l0.348 2.738c0.018 0.151 0.091 0.29 0.204 0.392s0.259 0.159 0.411 0.161h2.788c0.151-0.001 0.297-0.058 0.41-0.158s0.186-0.238 0.205-0.388l0.35-2.743c0.014-0.121 0.064-0.235 0.144-0.327s0.184-0.159 0.302-0.192c0.768-0.22 1.509-0.527 2.208-0.916 0.106-0.060 0.228-0.088 0.35-0.078s0.238 0.054 0.334 0.13l2.178 1.692c0.117 0.094 0.265 0.141 0.415 0.133s0.292-0.070 0.399-0.175l1.969-1.969c0.108-0.107 0.172-0.25 0.181-0.401s-0.039-0.301-0.133-0.42l-1.692-2.178c-0.076-0.096-0.121-0.212-0.13-0.334s0.018-0.244 0.078-0.35c0.389-0.699 0.696-1.439 0.916-2.208 0.033-0.117 0.1-0.222 0.192-0.302s0.206-0.129 0.327-0.144l2.738-0.348c0.151-0.019 0.289-0.092 0.391-0.205s0.159-0.259 0.162-0.411v-2.795c-0.001-0.151-0.058-0.297-0.158-0.41s-0.238-0.186-0.388-0.205l-2.743-0.35c-0.121-0.015-0.235-0.065-0.327-0.144s-0.159-0.184-0.192-0.302c-0.22-0.769-0.527-1.509-0.916-2.208-0.060-0.106-0.088-0.228-0.078-0.35s0.054-0.238 0.13-0.334l1.692-2.178c0.094-0.117 0.141-0.265 0.134-0.414s-0.069-0.292-0.174-0.399l-1.969-1.969c-0.107-0.108-0.25-0.172-0.401-0.181s-0.301 0.039-0.42 0.133l-2.178 1.692c-0.097 0.075-0.213 0.12-0.335 0.129s-0.244-0.018-0.351-0.077c-0.698-0.389-1.439-0.696-2.208-0.916-0.117-0.033-0.222-0.1-0.302-0.192s-0.129-0.206-0.144-0.327l-0.348-2.738c-0.019-0.151-0.091-0.29-0.204-0.392s-0.259-0.159-0.411-0.162h-2.794c-0.151 0.001-0.297 0.058-0.41 0.158s-0.186 0.238-0.205 0.388l-0.35 2.743c-0.015 0.121-0.066 0.234-0.145 0.327s-0.184 0.16-0.301 0.194c-0.769 0.219-1.51 0.526-2.208 0.914-0.107 0.060-0.228 0.087-0.35 0.078s-0.238-0.054-0.335-0.128l-2.174-1.692c-0.117-0.094-0.265-0.141-0.414-0.134s-0.292 0.069-0.399 0.174l-1.969 1.969c-0.108 0.107-0.172 0.25-0.181 0.401s0.039 0.301 0.133 0.42l1.692 2.178c0.076 0.096 0.121 0.212 0.13 0.334s-0.018 0.244-0.078 0.35c-0.389 0.698-0.697 1.439-0.916 2.208-0.033 0.117-0.1 0.222-0.192 0.302s-0.206 0.129-0.327 0.144l-2.742 0.351c-0.151 0.018-0.29 0.091-0.392 0.204s-0.159 0.259-0.161 0.411v2.788c0.001 0.151 0.058 0.297 0.158 0.41s0.238 0.186 0.388 0.205l2.743 0.35c0.121 0.015 0.235 0.065 0.327 0.144s0.159 0.184 0.192 0.302c0.22 0.769 0.527 1.509 0.916 2.208 0.060 0.106 0.088 0.228 0.078 0.35s-0.054 0.238-0.13 0.334l-1.692 2.178c-0.094 0.117-0.141 0.265-0.134 0.414s0.069 0.292 0.174 0.399l1.969 1.969c0.107 0.108 0.25 0.172 0.401 0.181s0.301-0.039 0.42-0.133l2.178-1.692c0.11-0.083 0.245-0.129 0.383-0.129l0.004 0.005z"></path>
        <path d="M16.048 22.247c-1.231 0-2.434-0.365-3.457-1.049s-1.821-1.656-2.292-2.793c-0.471-1.137-0.594-2.388-0.354-3.595s0.833-2.316 1.703-3.186c0.87-0.87 1.979-1.463 3.186-1.703s2.458-0.117 3.595 0.354c1.137 0.471 2.109 1.269 2.793 2.292s1.049 2.226 1.049 3.457c-0.002 1.65-0.658 3.231-1.825 4.398s-2.748 1.823-4.398 1.825zM16.048 11.047c-0.985-0-1.947 0.292-2.766 0.838s-1.457 1.324-1.834 2.234c-0.377 0.91-0.476 1.911-0.284 2.877s0.666 1.853 1.363 2.549c0.696 0.696 1.583 1.17 2.549 1.363s1.967 0.093 2.877-0.284c0.91-0.377 1.687-1.015 2.234-1.834s0.839-1.782 0.839-2.766c-0.001-1.32-0.526-2.585-1.459-3.518s-2.198-1.458-3.518-1.46v0.001z"></path>
    </symbol>
    <symbol id="share" xmlns="http://www.w3.org/2000/svg" width="32" height="32" viewBox="0 0 32 32">
        <path d="M8.063 9.703h13.806c0.082 0 0.164-0.016 0.24-0.048s0.145-0.078 0.204-0.136c0.058-0.058 0.105-0.127 0.136-0.204s0.048-0.158 0.048-0.24c0-0.082-0.016-0.164-0.048-0.24s-0.078-0.145-0.136-0.204c-0.058-0.058-0.127-0.105-0.204-0.136s-0.158-0.048-0.24-0.048h-13.806c-0.082 0-0.164 0.016-0.24 0.048s-0.145 0.078-0.204 0.136c-0.058 0.058-0.105 0.127-0.136 0.204s-0.048 0.158-0.048 0.24c0 0.082 0.016 0.164 0.048 0.24s0.078 0.145 0.136 0.204c0.058 0.058 0.127 0.105 0.204 0.136s0.158 0.048 0.24 0.048z"></path>
        <path d="M15.593 15.977h-7.53c-0.082 0-0.164 0.016-0.24 0.048s-0.145 0.078-0.204 0.136c-0.058 0.058-0.105 0.128-0.136 0.204s-0.048 0.158-0.048 0.24c0 0.082 0.016 0.164 0.048 0.24s0.078 0.145 0.136 0.204c0.058 0.058 0.127 0.105 0.204 0.136s0.158 0.048 0.24 0.048h7.53c0.167 0 0.326-0.066 0.444-0.184s0.184-0.277 0.184-0.444c0-0.167-0.066-0.326-0.184-0.444s-0.277-0.184-0.444-0.184z"></path>
        <path d="M28.879 4.681c-0.037 0-0.071 0.009-0.108 0.011v-0.011c-0.001-0.665-0.266-1.303-0.736-1.773s-1.108-0.735-1.773-0.736h-22.591c-0.665 0.001-1.303 0.266-1.773 0.736s-0.735 1.108-0.736 1.773v24.474c0 0.124 0.037 0.246 0.106 0.349s0.167 0.184 0.282 0.231c0.078 0.033 0.162 0.049 0.246 0.048 0.166 0 0.325-0.066 0.443-0.183l6.091-6.091h17.932c0.665-0.001 1.303-0.266 1.773-0.736s0.735-1.108 0.736-1.774v-10.41l1.806-1.812c0.335-0.336 0.564-0.764 0.656-1.23s0.045-0.948-0.137-1.387c-0.182-0.439-0.489-0.814-0.884-1.078s-0.859-0.405-1.334-0.405l0.001 0.004zM27.516 20.998c-0 0.333-0.133 0.652-0.368 0.887s-0.554 0.368-0.887 0.368h-18.198c-0.166 0-0.325 0.066-0.443 0.183l-5.204 5.204v-22.959c0-0.333 0.133-0.652 0.368-0.887s0.554-0.368 0.887-0.368h22.59c0.333 0 0.652 0.133 0.887 0.368s0.368 0.554 0.368 0.887v0.428c-0.12 0.081-0.233 0.173-0.336 0.274l-6.828 6.827h-12.289c-0.166 0-0.326 0.066-0.444 0.184s-0.184 0.277-0.184 0.444c0 0.166 0.066 0.326 0.184 0.444s0.277 0.184 0.444 0.184h11.282l-0.603 3.014c-0.018 0.091-0.016 0.185 0.007 0.275s0.065 0.174 0.124 0.246c0.059 0.072 0.133 0.13 0.217 0.169s0.175 0.060 0.268 0.060c0.041-0 0.083-0.004 0.123-0.012l3.136-0.628c0.122-0.024 0.233-0.083 0.321-0.171l4.577-4.577 0.001 9.154zM22.186 15.399l-2.027 0.406 0.406-2.030 5.696-5.696 1.623 1.623-5.698 5.696zM29.694 7.891l-0.919 0.919-1.623-1.623 0.919-0.919c0.215-0.215 0.507-0.336 0.811-0.336s0.596 0.121 0.811 0.336 0.336 0.507 0.336 0.811c-0 0.304-0.121 0.596-0.336 0.811h0.001z"></path>
    </symbol>
    <symbol id="star" xmlns="http://www.w3.org/2000/svg" width="32" height="32" viewBox="0 0 32 32">
        <path d="M7.251 30.706c-0.244-0.001-0.485-0.056-0.705-0.162s-0.413-0.26-0.565-0.451c-0.152-0.191-0.259-0.413-0.314-0.651s-0.055-0.485-0.001-0.723l1.97-8.664-6.673-5.85c-0.24-0.209-0.413-0.485-0.498-0.791s-0.078-0.632 0.020-0.935c0.098-0.303 0.283-0.57 0.531-0.769s0.55-0.32 0.867-0.349l8.825-0.801 3.489-8.166c0.125-0.293 0.333-0.542 0.599-0.717s0.577-0.269 0.895-0.269c0.318 0 0.629 0.093 0.895 0.269s0.474 0.425 0.599 0.717l3.487 8.167 8.824 0.801c0.317 0.029 0.619 0.15 0.868 0.348s0.434 0.466 0.532 0.769c0.098 0.303 0.105 0.628 0.021 0.935s-0.258 0.582-0.498 0.792l-6.665 5.848 1.966 8.664c0.071 0.31 0.048 0.634-0.064 0.932s-0.309 0.556-0.566 0.743c-0.258 0.187-0.564 0.294-0.882 0.308s-0.633-0.065-0.906-0.228l-7.608-4.548-7.612 4.55c-0.251 0.15-0.537 0.23-0.83 0.231h-0.004zM15.697 23.966c0.292 0.001 0.579 0.080 0.83 0.23l7.182 4.295-1.856-8.178c-0.065-0.286-0.052-0.584 0.039-0.863s0.255-0.528 0.475-0.721l6.298-5.523-8.331-0.756c-0.293-0.026-0.574-0.132-0.811-0.305s-0.424-0.408-0.538-0.68l-3.288-7.705-3.295 7.706c-0.114 0.27-0.3 0.504-0.537 0.677s-0.517 0.278-0.809 0.304l-8.334 0.756 6.298 5.523c0.221 0.193 0.386 0.442 0.477 0.722s0.104 0.578 0.038 0.864l-1.855 8.178 7.188-4.295c0.251-0.15 0.537-0.229 0.83-0.23zM20.742 10.718c0 0 0.002-0.002 0.001-0.004l-0.001 0.004z"></path>
    </symbol>
    <symbol id="support" xmlns="http://www.w3.org/2000/svg" width="32" height="32" viewBox="0 0 32 32">
        <path d="M26.605 5.15c-1.381-1.411-3.027-2.534-4.845-3.304s-3.77-1.172-5.744-1.183c-1.974-0.011-3.931 0.37-5.756 1.121s-3.485 1.856-4.881 3.252c-1.396 1.396-2.501 3.055-3.252 4.881s-1.131 3.783-1.121 5.757c0.011 1.974 0.413 3.926 1.183 5.744s1.893 3.464 3.304 4.845c1.381 1.411 3.027 2.534 4.845 3.304s3.77 1.172 5.744 1.183c1.974 0.011 3.931-0.37 5.757-1.121s3.485-1.856 4.881-3.252c1.396-1.396 2.501-3.055 3.252-4.881s1.131-3.783 1.121-5.757c-0.011-1.974-0.413-3.926-1.183-5.744s-1.893-3.464-3.304-4.845zM4.577 21.678c-0.961-1.843-1.462-3.891-1.462-5.97s0.502-4.127 1.462-5.97l4.745 2.371c-0.593 1.107-0.903 2.343-0.903 3.598s0.31 2.492 0.903 3.598l-4.745 2.373zM16.050 2.768c2.080-0.002 4.128 0.501 5.971 1.466l-2.374 4.745c-1.107-0.593-2.343-0.903-3.598-0.903s-2.492 0.31-3.598 0.903l-2.369-4.745c1.842-0.964 3.89-1.467 5.969-1.466zM21.69 15.706c0 1.116-0.331 2.206-0.951 3.133s-1.501 1.65-2.531 2.077c-1.031 0.427-2.164 0.538-3.258 0.321s-2.099-0.755-2.888-1.543c-0.789-0.789-1.326-1.794-1.543-2.888s-0.106-2.228 0.321-3.258c0.427-1.030 1.15-1.911 2.077-2.531s2.018-0.95 3.133-0.95c1.495 0.002 2.928 0.597 3.985 1.654s1.653 2.491 1.655 3.985zM16.050 28.643c-2.079 0.002-4.127-0.5-5.969-1.463l2.374-4.748c1.107 0.593 2.343 0.903 3.598 0.903s2.491-0.31 3.598-0.903l2.374 4.748c-1.844 0.964-3.895 1.466-5.976 1.463zM22.776 19.299c0.593-1.107 0.903-2.343 0.903-3.598s-0.31-2.491-0.903-3.598l4.748-2.365c0.961 1.844 1.463 3.892 1.463 5.972s-0.502 4.128-1.463 5.972l-4.748-2.382z"></path>
    </symbol>
</svg>