<!-- Generated by IcoMoon.io -->
<svg version="1.1" xmlns="http://www.w3.org/2000/svg" width="32" height="32" viewBox="0 0 32 32">
<path d="M26.595 5.057c-2.798-2.798-6.592-4.369-10.549-4.369s-7.751 1.572-10.549 4.369-4.369 6.592-4.369 10.549c0 3.956 1.572 7.751 4.369 10.549s6.592 4.369 10.549 4.369c3.956 0 7.751-1.572 10.549-4.369s4.369-6.592 4.369-10.549c0-3.957-1.572-7.751-4.369-10.549zM7.603 25.704c0.25-2.066 1.246-3.97 2.801-5.353s3.562-2.151 5.643-2.158c2.083 0 4.093 0.765 5.65 2.15s2.55 3.292 2.794 5.361c-2.366 1.984-5.356 3.071-8.443 3.071s-6.077-1.087-8.444-3.071zM16.046 16.393c-0.896 0-1.772-0.266-2.518-0.764s-1.326-1.206-1.669-2.034-0.433-1.739-0.258-2.618c0.175-0.879 0.607-1.686 1.24-2.32s1.441-1.065 2.32-1.24c0.879-0.175 1.79-0.085 2.618 0.258s1.536 0.924 2.034 1.669c0.498 0.745 0.764 1.621 0.764 2.518-0.001 1.201-0.479 2.353-1.329 3.203s-2.002 1.327-3.203 1.329zM25.989 24.226c-0.406-1.629-1.204-3.134-2.326-4.382s-2.532-2.204-4.108-2.782c1.114-0.752 1.957-1.843 2.405-3.11s0.478-2.645 0.084-3.931-1.189-2.411-2.27-3.21c-1.081-0.8-2.39-1.231-3.734-1.231s-2.653 0.431-3.734 1.231c-1.081 0.8-1.877 1.925-2.27 3.21s-0.364 2.663 0.084 3.931c0.448 1.267 1.291 2.358 2.405 3.11-1.577 0.576-2.988 1.531-4.11 2.779s-1.921 2.753-2.327 4.382c-1.654-1.908-2.725-4.251-3.085-6.75s0.006-5.049 1.054-7.346c1.048-2.297 2.735-4.244 4.859-5.61s4.596-2.091 7.121-2.091c2.525 0 4.997 0.726 7.121 2.091s3.811 3.313 4.859 5.61 1.415 4.847 1.054 7.346c-0.36 2.499-1.431 4.842-3.085 6.75v0.003z"></path>
</svg>
