<!-- Generated by IcoMoon.io -->
<svg version="1.1" xmlns="http://www.w3.org/2000/svg" width="32" height="32" viewBox="0 0 32 32">
<path fill="#1b5441" d="M16.043 0.571c-3.024 0-5.98 0.897-8.494 2.577s-4.474 4.068-5.631 6.861c-1.157 2.794-1.46 5.868-0.87 8.833s2.046 5.69 4.184 7.828c2.138 2.138 4.862 3.594 7.828 4.184s6.040 0.287 8.833-0.87c2.794-1.157 5.181-3.117 6.861-5.631s2.576-5.47 2.576-8.494c-0.004-4.053-1.616-7.939-4.482-10.805s-6.752-4.478-10.806-4.482zM16.043 2.61c2.623-0.002 5.187 0.775 7.368 2.231s3.882 3.527 4.886 5.949c1.004 2.423 1.267 5.089 0.756 7.662s-1.774 4.935-3.629 6.79-4.218 3.117-6.79 3.628c-2.572 0.511-5.239 0.248-7.661-0.757s-4.493-2.705-5.949-4.887-2.232-4.746-2.23-7.369c-0.001-1.74 0.341-3.464 1.006-5.071s1.641-3.069 2.872-4.299c1.231-1.231 2.691-2.206 4.299-2.872s3.331-1.006 5.071-1.005zM16.030 7.712c-0.269 0.005-0.525 0.116-0.712 0.308s-0.291 0.452-0.289 0.72v0.858c-0.812 0.067-1.572 0.43-2.135 1.020s-0.89 1.365-0.919 2.18c-0.012 0.555 0.104 1.104 0.337 1.608s0.578 0.947 1.008 1.296c0.73 0.512 1.545 0.891 2.407 1.121 0.636 0.173 1.242 0.439 1.8 0.79 0.205 0.143 0.366 0.341 0.465 0.571s0.13 0.483 0.091 0.731c0 1.698-4.069 1.698-4.069 0 0-0.27-0.107-0.53-0.299-0.721s-0.45-0.299-0.721-0.299-0.53 0.107-0.721 0.299c-0.191 0.191-0.299 0.45-0.299 0.721 0.029 0.816 0.355 1.592 0.918 2.183s1.322 0.955 2.136 1.024v0.854c0 0.27 0.107 0.53 0.299 0.721s0.45 0.299 0.721 0.299 0.53-0.107 0.721-0.299c0.191-0.191 0.299-0.45 0.299-0.721v-0.854c0.814-0.068 1.574-0.432 2.137-1.023s0.89-1.368 0.919-2.184c0.011-0.555-0.104-1.105-0.338-1.608s-0.579-0.947-1.010-1.296c-0.73-0.512-1.545-0.892-2.407-1.122-0.636-0.173-1.242-0.438-1.8-0.789-0.205-0.143-0.366-0.341-0.465-0.571s-0.13-0.483-0.091-0.731c0-1.698 4.069-1.698 4.069 0-0.005 0.137 0.018 0.273 0.068 0.401s0.124 0.244 0.219 0.343 0.209 0.177 0.335 0.23c0.126 0.053 0.262 0.081 0.398 0.081s0.272-0.028 0.398-0.081c0.126-0.053 0.24-0.132 0.335-0.23s0.17-0.215 0.219-0.343c0.049-0.128 0.072-0.264 0.068-0.401-0.030-0.815-0.358-1.59-0.921-2.18s-1.323-0.953-2.135-1.020v-0.856c0.001-0.136-0.025-0.271-0.077-0.397s-0.128-0.24-0.225-0.336c-0.097-0.096-0.211-0.171-0.338-0.222s-0.261-0.076-0.398-0.073v-0.002z"></path>
</svg>
