<!-- Generated by IcoMoon.io -->
<svg version="1.1" xmlns="http://www.w3.org/2000/svg" width="24" height="32" viewBox="0 0 24 32">
<path fill="none" stroke="#000" stroke-linejoin="round" stroke-linecap="round" stroke-miterlimit="10" stroke-width="1.1429" d="M18.349 3.773v-1.208h-4.229v-1.208h-4.229v2.416h-4.229v6.643l-1.811-2.416-3.017 1.208 0.51 6.113c0.194 2.327 1.187 4.516 2.811 6.194 0.394 0.406 0.865 0.728 1.386 0.948s1.081 0.333 1.646 0.333h12.368c0.873-0.262 1.638-0.798 2.182-1.529s0.838-1.618 0.838-2.529v-14.966h-4.226z"></path>
<path fill="none" stroke="#000" stroke-linejoin="round" stroke-linecap="round" stroke-miterlimit="10" stroke-width="1.1429" d="M6.611 24.228c0.087-0.405 0.31-0.768 0.633-1.029s0.724-0.403 1.139-0.403h10.266c0.238 0 0.474 0.047 0.693 0.138s0.419 0.224 0.588 0.393 0.302 0.368 0.393 0.588c0.091 0.22 0.138 0.455 0.138 0.693v4.65c0 0.238-0.047 0.473-0.138 0.693s-0.224 0.42-0.393 0.588c-0.168 0.168-0.368 0.302-0.588 0.393s-0.455 0.138-0.693 0.138h-10.266c-0.41 0-0.809-0.139-1.13-0.395s-0.546-0.613-0.637-1.013"></path>
<path d="M7.143 26.933c0 0.316-0.256 0.571-0.571 0.571s-0.571-0.256-0.571-0.571c0-0.316 0.256-0.571 0.571-0.571s0.571 0.256 0.571 0.571z"></path>
<path fill="none" stroke="#000" stroke-linejoin="round" stroke-linecap="round" stroke-miterlimit="10" stroke-width="1.1429" d="M11.297 22.796h0.302c1.097 0 2.15 0.436 2.925 1.212s1.212 1.828 1.212 2.925-0.436 2.149-1.212 2.925c-0.776 0.776-1.828 1.212-2.925 1.212h-0.302"></path>
<path fill="none" stroke="#000" stroke-linejoin="round" stroke-linecap="round" stroke-miterlimit="10" stroke-width="1.1429" d="M20.462 25.726v2.416h-4.905c0.239-0.788 0.239-1.628 0-2.416h4.905z"></path>
<path fill="none" stroke="#000" stroke-linejoin="round" stroke-linecap="round" stroke-miterlimit="10" stroke-width="1.1429" d="M9.773 3.592v2.234"></path>
<path fill="none" stroke="#000" stroke-linejoin="round" stroke-linecap="round" stroke-miterlimit="10" stroke-width="1.1429" d="M14.242 2.474v2.234"></path>
<path fill="none" stroke="#000" stroke-linejoin="round" stroke-linecap="round" stroke-miterlimit="10" stroke-width="1.1429" d="M18.711 3.592v2.234"></path>
<path fill="none" stroke="#000" stroke-linejoin="round" stroke-linecap="round" stroke-miterlimit="10" stroke-width="1.1429" d="M22.579 10.415v1.359c-0 0.961-0.382 1.882-1.061 2.561s-1.601 1.061-2.561 1.062h-9.663c-0.961-0-1.882-0.382-2.561-1.062s-1.061-1.601-1.061-2.561v-1.359"></path>
<path fill="none" stroke="#000" stroke-linejoin="round" stroke-linecap="round" stroke-miterlimit="10" stroke-width="1.1429" d="M22.579 18.738c-0.006-0.461-0.106-0.916-0.294-1.337s-0.46-0.8-0.799-1.112c-0.339-0.313-0.738-0.553-1.173-0.706s-0.897-0.216-1.357-0.184h-9.663c-0.961 0-1.882 0.382-2.562 1.062s-1.061 1.601-1.061 2.562v3.473"></path>
<path fill="none" stroke="#000" stroke-linejoin="round" stroke-linecap="round" stroke-miterlimit="10" stroke-width="1.1429" d="M7.538 8.061h12.29"></path>
<path d="M13.891 26.933c0 0.316-0.256 0.571-0.571 0.571s-0.571-0.256-0.571-0.571c0-0.316 0.256-0.571 0.571-0.571s0.571 0.256 0.571 0.571z"></path>
</svg>
