<!-- Generated by IcoMoon.io -->
<svg version="1.1" xmlns="http://www.w3.org/2000/svg" width="32" height="32" viewBox="0 0 32 32">
<path d="M27.964 22.506h-3.579v-3.579c0-0.271-0.108-0.531-0.299-0.723s-0.452-0.3-0.723-0.3c-0.271 0-0.531 0.108-0.723 0.3s-0.3 0.452-0.3 0.723v3.579h-3.579c-0.271 0-0.531 0.108-0.723 0.3s-0.3 0.452-0.3 0.723c0 0.271 0.108 0.531 0.3 0.723s0.452 0.299 0.723 0.299h3.579v3.579c0 0.271 0.108 0.531 0.3 0.723s0.452 0.299 0.723 0.299c0.271 0 0.531-0.108 0.723-0.299s0.299-0.452 0.299-0.723v-3.579h3.579c0.271 0 0.531-0.108 0.723-0.299s0.299-0.452 0.299-0.723c0-0.271-0.108-0.531-0.299-0.723s-0.452-0.3-0.723-0.3z"></path>
<path d="M15.694 29.153h-10.226c-0.271 0-0.531-0.108-0.723-0.3s-0.3-0.452-0.3-0.723c0.003-2.982 1.189-5.841 3.298-7.95s4.968-3.295 7.95-3.298c1.977 0.006 3.889-0.701 5.385-1.992s2.477-3.079 2.761-5.035-0.148-3.949-1.215-5.612c-1.068-1.663-2.7-2.885-4.597-3.442s-3.93-0.409-5.727 0.414c-1.797 0.823-3.236 2.267-4.054 4.067s-0.958 3.834-0.395 5.729c0.562 1.895 1.79 3.523 3.457 4.585-2.599 0.91-4.852 2.605-6.447 4.85s-2.455 4.93-2.46 7.684c0 0.813 0.323 1.594 0.898 2.169s1.355 0.898 2.169 0.898h10.226c0.271 0 0.531-0.108 0.723-0.3s0.3-0.452 0.3-0.723c0-0.271-0.108-0.531-0.3-0.723s-0.452-0.298-0.723-0.298zM9.559 8.708c0-1.214 0.36-2.4 1.034-3.409s1.632-1.795 2.754-2.26c1.121-0.464 2.355-0.586 3.545-0.349s2.284 0.821 3.142 1.679 1.442 1.951 1.679 3.142c0.237 1.19 0.115 2.424-0.349 3.545s-1.251 2.079-2.26 2.754c-1.009 0.674-2.195 1.034-3.409 1.034-1.627 0-3.188-0.647-4.339-1.797s-1.797-2.711-1.797-4.339z"></path>
</svg>
