<!-- Generated by IcoMoon.io -->
<svg version="1.1" xmlns="http://www.w3.org/2000/svg" width="32" height="32" viewBox="0 0 32 32">
<path fill="none" stroke-linejoin="round" stroke-linecap="round" stroke-miterlimit="10" stroke-width="1.2308" stroke="#000" d="M22.565 30.259h-13.001c0-0.834 0.331-1.633 0.921-2.223s1.389-0.921 2.223-0.921h6.714c0.834 0 1.633 0.331 2.223 0.921s0.921 1.389 0.921 2.223z"></path>
<path fill="none" stroke-linejoin="round" stroke-linecap="round" stroke-miterlimit="10" stroke-width="1.2308" stroke="#000" d="M18.144 3.735c0 0.555-0.22 1.087-0.613 1.479s-0.925 0.613-1.479 0.613c-0.275 0.001-0.548-0.052-0.803-0.157s-0.486-0.259-0.681-0.453-0.35-0.425-0.456-0.68c-0.106-0.254-0.16-0.527-0.16-0.802 0-0.555 0.22-1.087 0.613-1.479s0.925-0.613 1.479-0.613c0.275-0.001 0.548 0.052 0.803 0.157s0.486 0.259 0.681 0.453 0.35 0.425 0.456 0.68c0.106 0.254 0.16 0.527 0.16 0.802z"></path>
<path fill="none" stroke-linejoin="round" stroke-linecap="round" stroke-miterlimit="10" stroke-width="1.2308" stroke="#000" d="M17.461 5.413v21.703h-2.794v-21.703"></path>
<path fill="none" stroke-linejoin="round" stroke-linecap="round" stroke-miterlimit="10" stroke-width="1.2308" stroke="#000" d="M26.752 5.413c0 0.388-0.154 0.761-0.429 1.036s-0.647 0.429-1.036 0.429c-0.192 0-0.383-0.038-0.561-0.111s-0.339-0.181-0.476-0.317c-0.136-0.136-0.244-0.298-0.318-0.475s-0.112-0.368-0.112-0.561h-6.361"></path>
<path fill="none" stroke-linejoin="round" stroke-linecap="round" stroke-miterlimit="10" stroke-width="1.2308" stroke="#000" d="M5.344 5.413c0 0.388 0.154 0.761 0.429 1.036s0.647 0.429 1.036 0.429c0.192 0 0.383-0.038 0.561-0.111s0.339-0.181 0.476-0.317c0.136-0.136 0.244-0.298 0.318-0.475s0.112-0.368 0.112-0.561h6.361"></path>
<path fill="none" stroke-linejoin="round" stroke-linecap="round" stroke-miterlimit="10" stroke-width="1.2308" stroke="#000" d="M11.872 15.938l-5.065-9.061-5.065 9.061c0 1.112 0.442 2.177 1.227 2.963s1.852 1.227 2.963 1.227h1.746c0.55 0 1.096-0.108 1.604-0.319s0.971-0.519 1.36-0.908 0.698-0.851 0.909-1.36c0.211-0.509 0.319-1.054 0.319-1.604z"></path>
<path fill="none" stroke-linejoin="round" stroke-linecap="round" stroke-miterlimit="10" stroke-width="1.2308" stroke="#000" d="M25.287 6.877l-5.065 9.061c0 1.112 0.442 2.177 1.227 2.963s1.852 1.227 2.963 1.227h1.746c1.111 0 2.177-0.441 2.963-1.227s1.227-1.852 1.227-2.963l-5.063-9.061z"></path>
<path fill="none" stroke-linejoin="round" stroke-linecap="round" stroke-miterlimit="10" stroke-width="1.2308" stroke="#000" d="M1.964 15.939h9.689"></path>
<path fill="none" stroke-linejoin="round" stroke-linecap="round" stroke-miterlimit="10" stroke-width="1.2308" stroke="#000" d="M11.653 15.939h-9.689"></path>
<path fill="none" stroke-linejoin="round" stroke-linecap="round" stroke-miterlimit="10" stroke-width="1.2308" stroke="#000" d="M30.137 15.939h-9.696"></path>
<path fill="none" stroke-linejoin="round" stroke-linecap="round" stroke-miterlimit="10" stroke-width="1.2308" stroke="#000" d="M20.439 15.939h9.696"></path>
</svg>
