<!-- Generated by IcoMoon.io -->
<svg version="1.1" xmlns="http://www.w3.org/2000/svg" width="32" height="32" viewBox="0 0 32 32">
<path d="M17.441 30.96h-2.79c-0.455-0.001-0.894-0.169-1.234-0.472s-0.558-0.719-0.612-1.171l-0.298-2.338c-0.588-0.191-1.159-0.427-1.71-0.708l-1.86 1.447c-0.359 0.282-0.809 0.423-1.265 0.394s-0.885-0.225-1.205-0.55l-1.961-1.961c-0.324-0.32-0.519-0.747-0.547-1.202s0.113-0.903 0.396-1.26l1.444-1.866c-0.281-0.55-0.518-1.122-0.708-1.71l-2.338-0.298c-0.452-0.055-0.868-0.274-1.17-0.614s-0.47-0.779-0.471-1.234v-2.79c0.001-0.455 0.169-0.894 0.472-1.234s0.719-0.558 1.171-0.612l2.338-0.298c0.191-0.588 0.427-1.159 0.708-1.71l-1.447-1.86c-0.283-0.359-0.423-0.81-0.394-1.266s0.225-0.885 0.551-1.206l1.961-1.961c0.32-0.323 0.748-0.517 1.202-0.545s0.902 0.112 1.26 0.393l1.861 1.445c0.551-0.281 1.123-0.517 1.711-0.708l0.298-2.338c0.054-0.452 0.272-0.868 0.613-1.171s0.779-0.469 1.235-0.47h2.788c0.455 0.001 0.894 0.169 1.234 0.472s0.558 0.719 0.612 1.171l0.298 2.338c0.588 0.19 1.16 0.427 1.711 0.708l1.86-1.445c0.359-0.282 0.809-0.423 1.265-0.394s0.885 0.225 1.205 0.551l1.961 1.961c0.324 0.319 0.519 0.747 0.547 1.202s-0.113 0.903-0.396 1.26l-1.439 1.858c0.281 0.55 0.518 1.122 0.708 1.71l2.338 0.298c0.452 0.055 0.868 0.273 1.17 0.614s0.469 0.78 0.47 1.235v2.788c-0.001 0.455-0.169 0.894-0.472 1.234s-0.719 0.558-1.171 0.612l-2.338 0.298c-0.191 0.587-0.427 1.159-0.708 1.71l1.445 1.86c0.283 0.359 0.423 0.809 0.394 1.265s-0.225 0.885-0.551 1.205l-1.961 1.961c-0.32 0.324-0.748 0.519-1.202 0.547s-0.903-0.113-1.26-0.396l-1.862-1.439c-0.55 0.281-1.122 0.518-1.71 0.708l-0.298 2.338c-0.055 0.451-0.273 0.867-0.613 1.169s-0.778 0.469-1.233 0.471l-0.002 0.002zM10.734 24.911c0.106 0 0.211 0.027 0.304 0.079 0.699 0.389 1.439 0.696 2.208 0.916 0.117 0.033 0.222 0.1 0.302 0.192s0.129 0.206 0.144 0.327l0.348 2.738c0.018 0.151 0.091 0.29 0.204 0.392s0.259 0.159 0.411 0.161h2.788c0.151-0.001 0.297-0.058 0.41-0.158s0.186-0.238 0.205-0.388l0.35-2.743c0.014-0.121 0.064-0.235 0.144-0.327s0.184-0.159 0.302-0.192c0.768-0.22 1.509-0.527 2.208-0.916 0.106-0.060 0.228-0.088 0.35-0.078s0.238 0.054 0.334 0.13l2.178 1.692c0.117 0.094 0.265 0.141 0.415 0.133s0.292-0.070 0.399-0.175l1.969-1.969c0.108-0.107 0.172-0.25 0.181-0.401s-0.039-0.301-0.133-0.42l-1.692-2.178c-0.076-0.096-0.121-0.212-0.13-0.334s0.018-0.244 0.078-0.35c0.389-0.699 0.696-1.439 0.916-2.208 0.033-0.117 0.1-0.222 0.192-0.302s0.206-0.129 0.327-0.144l2.738-0.348c0.151-0.019 0.289-0.092 0.391-0.205s0.159-0.259 0.162-0.411v-2.795c-0.001-0.151-0.058-0.297-0.158-0.41s-0.238-0.186-0.388-0.205l-2.743-0.35c-0.121-0.015-0.235-0.065-0.327-0.144s-0.159-0.184-0.192-0.302c-0.22-0.769-0.527-1.509-0.916-2.208-0.060-0.106-0.088-0.228-0.078-0.35s0.054-0.238 0.13-0.334l1.692-2.178c0.094-0.117 0.141-0.265 0.134-0.414s-0.069-0.292-0.174-0.399l-1.969-1.969c-0.107-0.108-0.25-0.172-0.401-0.181s-0.301 0.039-0.42 0.133l-2.178 1.692c-0.097 0.075-0.213 0.12-0.335 0.129s-0.244-0.018-0.351-0.077c-0.698-0.389-1.439-0.696-2.208-0.916-0.117-0.033-0.222-0.1-0.302-0.192s-0.129-0.206-0.144-0.327l-0.348-2.738c-0.019-0.151-0.091-0.29-0.204-0.392s-0.259-0.159-0.411-0.162h-2.794c-0.151 0.001-0.297 0.058-0.41 0.158s-0.186 0.238-0.205 0.388l-0.35 2.743c-0.015 0.121-0.066 0.234-0.145 0.327s-0.184 0.16-0.301 0.194c-0.769 0.219-1.51 0.526-2.208 0.914-0.107 0.060-0.228 0.087-0.35 0.078s-0.238-0.054-0.335-0.128l-2.174-1.692c-0.117-0.094-0.265-0.141-0.414-0.134s-0.292 0.069-0.399 0.174l-1.969 1.969c-0.108 0.107-0.172 0.25-0.181 0.401s0.039 0.301 0.133 0.42l1.692 2.178c0.076 0.096 0.121 0.212 0.13 0.334s-0.018 0.244-0.078 0.35c-0.389 0.698-0.697 1.439-0.916 2.208-0.033 0.117-0.1 0.222-0.192 0.302s-0.206 0.129-0.327 0.144l-2.742 0.351c-0.151 0.018-0.29 0.091-0.392 0.204s-0.159 0.259-0.161 0.411v2.788c0.001 0.151 0.058 0.297 0.158 0.41s0.238 0.186 0.388 0.205l2.743 0.35c0.121 0.015 0.235 0.065 0.327 0.144s0.159 0.184 0.192 0.302c0.22 0.769 0.527 1.509 0.916 2.208 0.060 0.106 0.088 0.228 0.078 0.35s-0.054 0.238-0.13 0.334l-1.692 2.178c-0.094 0.117-0.141 0.265-0.134 0.414s0.069 0.292 0.174 0.399l1.969 1.969c0.107 0.108 0.25 0.172 0.401 0.181s0.301-0.039 0.42-0.133l2.178-1.692c0.11-0.083 0.245-0.129 0.383-0.129l0.004 0.005z"></path>
<path d="M16.048 22.247c-1.231 0-2.434-0.365-3.457-1.049s-1.821-1.656-2.292-2.793c-0.471-1.137-0.594-2.388-0.354-3.595s0.833-2.316 1.703-3.186c0.87-0.87 1.979-1.463 3.186-1.703s2.458-0.117 3.595 0.354c1.137 0.471 2.109 1.269 2.793 2.292s1.049 2.226 1.049 3.457c-0.002 1.65-0.658 3.231-1.825 4.398s-2.748 1.823-4.398 1.825zM16.048 11.047c-0.985-0-1.947 0.292-2.766 0.838s-1.457 1.324-1.834 2.234c-0.377 0.91-0.476 1.911-0.284 2.877s0.666 1.853 1.363 2.549c0.696 0.696 1.583 1.17 2.549 1.363s1.967 0.093 2.877-0.284c0.91-0.377 1.687-1.015 2.234-1.834s0.839-1.782 0.839-2.766c-0.001-1.32-0.526-2.585-1.459-3.518s-2.198-1.458-3.518-1.46v0.001z"></path>
</svg>
