<!-- Generated by IcoMoon.io -->
<svg version="1.1" xmlns="http://www.w3.org/2000/svg" width="32" height="32" viewBox="0 0 32 32">
<path d="M8.063 9.703h13.806c0.082 0 0.164-0.016 0.24-0.048s0.145-0.078 0.204-0.136c0.058-0.058 0.105-0.127 0.136-0.204s0.048-0.158 0.048-0.24c0-0.082-0.016-0.164-0.048-0.24s-0.078-0.145-0.136-0.204c-0.058-0.058-0.127-0.105-0.204-0.136s-0.158-0.048-0.24-0.048h-13.806c-0.082 0-0.164 0.016-0.24 0.048s-0.145 0.078-0.204 0.136c-0.058 0.058-0.105 0.127-0.136 0.204s-0.048 0.158-0.048 0.24c0 0.082 0.016 0.164 0.048 0.24s0.078 0.145 0.136 0.204c0.058 0.058 0.127 0.105 0.204 0.136s0.158 0.048 0.24 0.048z"></path>
<path d="M15.593 15.977h-7.53c-0.082 0-0.164 0.016-0.24 0.048s-0.145 0.078-0.204 0.136c-0.058 0.058-0.105 0.128-0.136 0.204s-0.048 0.158-0.048 0.24c0 0.082 0.016 0.164 0.048 0.24s0.078 0.145 0.136 0.204c0.058 0.058 0.127 0.105 0.204 0.136s0.158 0.048 0.24 0.048h7.53c0.167 0 0.326-0.066 0.444-0.184s0.184-0.277 0.184-0.444c0-0.167-0.066-0.326-0.184-0.444s-0.277-0.184-0.444-0.184z"></path>
<path d="M28.879 4.681c-0.037 0-0.071 0.009-0.108 0.011v-0.011c-0.001-0.665-0.266-1.303-0.736-1.773s-1.108-0.735-1.773-0.736h-22.591c-0.665 0.001-1.303 0.266-1.773 0.736s-0.735 1.108-0.736 1.773v24.474c0 0.124 0.037 0.246 0.106 0.349s0.167 0.184 0.282 0.231c0.078 0.033 0.162 0.049 0.246 0.048 0.166 0 0.325-0.066 0.443-0.183l6.091-6.091h17.932c0.665-0.001 1.303-0.266 1.773-0.736s0.735-1.108 0.736-1.774v-10.41l1.806-1.812c0.335-0.336 0.564-0.764 0.656-1.23s0.045-0.948-0.137-1.387c-0.182-0.439-0.489-0.814-0.884-1.078s-0.859-0.405-1.334-0.405l0.001 0.004zM27.516 20.998c-0 0.333-0.133 0.652-0.368 0.887s-0.554 0.368-0.887 0.368h-18.198c-0.166 0-0.325 0.066-0.443 0.183l-5.204 5.204v-22.959c0-0.333 0.133-0.652 0.368-0.887s0.554-0.368 0.887-0.368h22.59c0.333 0 0.652 0.133 0.887 0.368s0.368 0.554 0.368 0.887v0.428c-0.12 0.081-0.233 0.173-0.336 0.274l-6.828 6.827h-12.289c-0.166 0-0.326 0.066-0.444 0.184s-0.184 0.277-0.184 0.444c0 0.166 0.066 0.326 0.184 0.444s0.277 0.184 0.444 0.184h11.282l-0.603 3.014c-0.018 0.091-0.016 0.185 0.007 0.275s0.065 0.174 0.124 0.246c0.059 0.072 0.133 0.13 0.217 0.169s0.175 0.060 0.268 0.060c0.041-0 0.083-0.004 0.123-0.012l3.136-0.628c0.122-0.024 0.233-0.083 0.321-0.171l4.577-4.577 0.001 9.154zM22.186 15.399l-2.027 0.406 0.406-2.030 5.696-5.696 1.623 1.623-5.698 5.696zM29.694 7.891l-0.919 0.919-1.623-1.623 0.919-0.919c0.215-0.215 0.507-0.336 0.811-0.336s0.596 0.121 0.811 0.336 0.336 0.507 0.336 0.811c-0 0.304-0.121 0.596-0.336 0.811h0.001z"></path>
</svg>
