<!-- Generated by IcoMoon.io -->
<svg version="1.1" xmlns="http://www.w3.org/2000/svg" width="32" height="32" viewBox="0 0 32 32">
<path d="M7.251 30.706c-0.244-0.001-0.485-0.056-0.705-0.162s-0.413-0.26-0.565-0.451c-0.152-0.191-0.259-0.413-0.314-0.651s-0.055-0.485-0.001-0.723l1.97-8.664-6.673-5.85c-0.24-0.209-0.413-0.485-0.498-0.791s-0.078-0.632 0.020-0.935c0.098-0.303 0.283-0.57 0.531-0.769s0.55-0.32 0.867-0.349l8.825-0.801 3.489-8.166c0.125-0.293 0.333-0.542 0.599-0.717s0.577-0.269 0.895-0.269c0.318 0 0.629 0.093 0.895 0.269s0.474 0.425 0.599 0.717l3.487 8.167 8.824 0.801c0.317 0.029 0.619 0.15 0.868 0.348s0.434 0.466 0.532 0.769c0.098 0.303 0.105 0.628 0.021 0.935s-0.258 0.582-0.498 0.792l-6.665 5.848 1.966 8.664c0.071 0.31 0.048 0.634-0.064 0.932s-0.309 0.556-0.566 0.743c-0.258 0.187-0.564 0.294-0.882 0.308s-0.633-0.065-0.906-0.228l-7.608-4.548-7.612 4.55c-0.251 0.15-0.537 0.23-0.83 0.231h-0.004zM15.697 23.966c0.292 0.001 0.579 0.080 0.83 0.23l7.182 4.295-1.856-8.178c-0.065-0.286-0.052-0.584 0.039-0.863s0.255-0.528 0.475-0.721l6.298-5.523-8.331-0.756c-0.293-0.026-0.574-0.132-0.811-0.305s-0.424-0.408-0.538-0.68l-3.288-7.705-3.295 7.706c-0.114 0.27-0.3 0.504-0.537 0.677s-0.517 0.278-0.809 0.304l-8.334 0.756 6.298 5.523c0.221 0.193 0.386 0.442 0.477 0.722s0.104 0.578 0.038 0.864l-1.855 8.178 7.188-4.295c0.251-0.15 0.537-0.229 0.83-0.23zM20.742 10.718c0 0 0.002-0.002 0.001-0.004l-0.001 0.004z"></path>
</svg>
