<!-- Generated by IcoMoon.io -->
<svg version="1.1" xmlns="http://www.w3.org/2000/svg" width="32" height="32" viewBox="0 0 32 32">
<path d="M26.605 5.15c-1.381-1.411-3.027-2.534-4.845-3.304s-3.77-1.172-5.744-1.183c-1.974-0.011-3.931 0.37-5.756 1.121s-3.485 1.856-4.881 3.252c-1.396 1.396-2.501 3.055-3.252 4.881s-1.131 3.783-1.121 5.757c0.011 1.974 0.413 3.926 1.183 5.744s1.893 3.464 3.304 4.845c1.381 1.411 3.027 2.534 4.845 3.304s3.77 1.172 5.744 1.183c1.974 0.011 3.931-0.37 5.757-1.121s3.485-1.856 4.881-3.252c1.396-1.396 2.501-3.055 3.252-4.881s1.131-3.783 1.121-5.757c-0.011-1.974-0.413-3.926-1.183-5.744s-1.893-3.464-3.304-4.845zM4.577 21.678c-0.961-1.843-1.462-3.891-1.462-5.97s0.502-4.127 1.462-5.97l4.745 2.371c-0.593 1.107-0.903 2.343-0.903 3.598s0.31 2.492 0.903 3.598l-4.745 2.373zM16.050 2.768c2.080-0.002 4.128 0.501 5.971 1.466l-2.374 4.745c-1.107-0.593-2.343-0.903-3.598-0.903s-2.492 0.31-3.598 0.903l-2.369-4.745c1.842-0.964 3.89-1.467 5.969-1.466zM21.69 15.706c0 1.116-0.331 2.206-0.951 3.133s-1.501 1.65-2.531 2.077c-1.031 0.427-2.164 0.538-3.258 0.321s-2.099-0.755-2.888-1.543c-0.789-0.789-1.326-1.794-1.543-2.888s-0.106-2.228 0.321-3.258c0.427-1.030 1.15-1.911 2.077-2.531s2.018-0.95 3.133-0.95c1.495 0.002 2.928 0.597 3.985 1.654s1.653 2.491 1.655 3.985zM16.050 28.643c-2.079 0.002-4.127-0.5-5.969-1.463l2.374-4.748c1.107 0.593 2.343 0.903 3.598 0.903s2.491-0.31 3.598-0.903l2.374 4.748c-1.844 0.964-3.895 1.466-5.976 1.463zM22.776 19.299c0.593-1.107 0.903-2.343 0.903-3.598s-0.31-2.491-0.903-3.598l4.748-2.365c0.961 1.844 1.463 3.892 1.463 5.972s-0.502 4.128-1.463 5.972l-4.748-2.382z"></path>
</svg>
